<svg width="214" height="198" viewBox="0 0 214 198" fill="none" xmlns="http://www.w3.org/2000/svg">
<path d="M184.454 165.808C184.385 166.015 184.247 166.154 184.109 166.154C184.04 166.154 184.04 166.154 183.971 166.154C180.312 166.085 173.961 147.323 164.78 148.431C164.711 148.431 164.573 148.431 164.504 148.431C164.504 148.431 173.271 144.277 177.689 146.562C184.454 150.092 185.49 163.523 184.454 165.808Z" fill="url(#paint0_linear_94_519)"/>
<path d="M184.454 165.808C184.385 166.015 184.247 166.154 184.109 166.154C184.04 166.154 184.04 166.154 183.971 166.154C180.312 166.085 173.961 147.323 164.78 148.431C164.78 148.431 174.928 144.415 179.691 152.654C182.728 157.846 183.902 162.831 184.454 165.808Z" fill="#C2D2DC"/>
<path d="M184.661 177.439C184.523 177.439 184.454 177.3 184.454 177.231C184.454 176.954 186.042 149.469 171.407 147.462C171.269 147.462 171.407 146.838 171.407 146.7C171.407 146.562 171.959 146.7 172.097 146.7C187.146 148.777 184.868 176.954 184.868 177.231C184.868 177.369 184.73 177.439 184.661 177.439Z" fill="url(#paint1_linear_94_519)"/>
<path d="M208.477 154.8C199.158 153.346 192.669 172.246 189.01 172.523C188.941 172.523 188.872 172.523 188.872 172.523C188.803 172.523 188.734 172.454 188.665 172.454C187.353 171.138 188.182 156.669 195.361 152.931C199.641 150.715 207.994 154.592 208.477 154.8Z" fill="url(#paint2_linear_94_519)"/>
<path d="M208.477 154.8C199.158 153.415 192.738 172.246 189.079 172.523C189.01 172.523 188.941 172.523 188.941 172.523C188.872 172.523 188.803 172.454 188.734 172.454C189.355 169.2 190.529 162.554 194.395 157.777C199.503 151.408 207.856 154.592 208.477 154.8Z" fill="#C2D2DC"/>
<path d="M188.32 183.877C188.182 183.877 188.113 183.808 188.113 183.669C188.113 183.392 186.387 155.492 201.436 153.415C201.574 153.415 201.85 153.415 201.85 153.554C201.85 153.692 201.85 153.9 201.712 153.9C187.077 155.908 188.527 183.323 188.527 183.669C188.527 183.738 188.458 183.877 188.32 183.877Z" fill="url(#paint3_linear_94_519)"/>
<path d="M185.283 153.485C185.283 153.554 185.283 153.623 185.283 153.623C185.283 153.623 185.214 153.623 185.145 153.554C184.385 152.862 180.174 148.777 178.103 139.292C175.273 126.138 170.234 123.162 169.888 122.954L169.612 122.815C169.681 122.815 169.819 122.746 169.888 122.746C176.93 121.431 182.314 124.892 184.316 133.131C186.594 142.269 185.421 152.377 185.283 153.485Z" fill="url(#paint4_linear_94_519)"/>
<path d="M185.145 153.554C184.385 152.862 180.174 148.777 178.103 139.292C175.273 126.138 170.234 123.162 169.888 122.954C170.372 123.023 179.76 124.892 182.314 135.762C184.247 143.931 184.868 150.577 185.145 153.554Z" fill="#C2D2DC"/>
<path d="M186.18 182.561C186.042 182.561 185.973 182.492 185.973 182.354V182.215C186.111 176.746 187.492 132.577 174.444 124.892C174.306 124.823 174.79 124.269 174.928 124.338C188.113 129.115 186.663 173.354 186.387 182.285V182.423C186.456 182.423 186.318 182.561 186.18 182.561Z" fill="url(#paint5_linear_94_519)"/>
<path d="M203.576 128.977L203.3 129.115C203.3 129.115 197.985 131.885 195.085 145.454C192.876 155.631 188.182 159.646 187.906 159.785C187.906 159.785 187.906 159.646 187.837 159.438C187.63 157.569 186.663 147.946 188.803 139.292C190.874 130.985 196.397 127.523 203.576 128.977Z" fill="url(#paint6_linear_94_519)"/>
<path d="M203.576 128.977L203.3 129.115C203.3 129.115 197.985 131.885 195.085 145.454C192.876 155.631 188.182 159.646 187.906 159.785C187.906 159.785 187.906 159.646 187.837 159.438C189.287 146.215 191.634 139.638 193.774 135.554C196.466 130.569 203.576 128.977 203.576 128.977Z" fill="#C2D2DC"/>
<path d="M186.87 183.046C186.732 183.046 186.663 182.977 186.663 182.838C186.594 168.231 187.285 135.346 198.261 130.5C198.399 130.431 198.882 129.808 198.882 129.946C198.951 130.085 198.951 130.777 198.882 130.846C188.182 135.554 187.077 168.3 187.146 182.838C187.077 182.977 187.008 183.046 186.87 183.046Z" fill="url(#paint7_linear_94_519)"/>
<path d="M178.103 176.954L178.241 178.546L179.484 192.531C179.553 193.292 180.174 193.915 180.934 193.915L192.807 194.054C193.566 194.054 194.188 193.5 194.257 192.738L195.568 180.138L195.914 177.162L178.103 176.954Z" fill="url(#paint8_linear_94_519)"/>
<path d="M178.241 178.546L179.484 192.531C179.553 193.292 180.174 193.915 180.933 193.915L186.594 193.985C181.486 191.908 180.243 187.338 181.279 183.877C182.383 180.069 194.395 180.138 195.637 180.138C195.706 180.138 195.775 180.138 195.775 180.138H195.637L184.316 177.715L178.241 178.546Z" fill="#DBE7EE"/>
<path d="M177.62 180L196.466 180.138C196.811 180.138 197.018 179.862 197.087 179.585V177.715C197.087 177.369 196.811 177.162 196.535 177.092L177.689 176.954C177.344 176.954 177.137 177.231 177.068 177.508V179.377C176.999 179.723 177.275 180 177.62 180Z" fill="url(#paint9_linear_94_519)"/>
<path d="M60.4722 159.231H166.437V52.9615H60.4722V159.231Z" fill="url(#paint10_linear_94_519)"/>
<g opacity="0.15">
<g opacity="0.15">
<g opacity="0.15">
<path opacity="0.15" d="M38.3128 65.423H125.639C126.881 65.423 127.848 64.4538 127.848 63.2077V6.5769C127.848 5.33074 126.881 4.36151 125.639 4.36151H38.3128C37.0702 4.36151 36.1038 5.33074 36.1038 6.5769V63.2077C36.1038 64.3846 37.1392 65.423 38.3128 65.423Z" fill="url(#paint11_linear_94_519)"/>
</g>
<path opacity="0.15" d="M36.1729 13.1538H127.917V6.23077C127.917 4.98461 126.95 4.01538 125.708 4.01538H38.4509C37.2083 4.01538 36.2419 4.98461 36.2419 6.23077V13.1538H36.1729Z" fill="url(#paint12_linear_94_519)"/>
<g opacity="0.15">
<path opacity="0.15" d="M55.7779 9.9C56.5023 9.9 57.0895 9.31108 57.0895 8.58461C57.0895 7.85814 56.5023 7.26923 55.7779 7.26923C55.0535 7.26923 54.4663 7.85814 54.4663 8.58461C54.4663 9.31108 55.0535 9.9 55.7779 9.9Z" fill="white"/>
<path opacity="0.15" d="M49.4962 9.9C50.2206 9.9 50.8078 9.31108 50.8078 8.58461C50.8078 7.85814 50.2206 7.26923 49.4962 7.26923C48.7718 7.26923 48.1846 7.85814 48.1846 8.58461C48.1846 9.31108 48.7718 9.9 49.4962 9.9Z" fill="white"/>
<path opacity="0.15" d="M43.1451 9.9C43.8695 9.9 44.4567 9.31108 44.4567 8.58461C44.4567 7.85814 43.8695 7.26923 43.1451 7.26923C42.4207 7.26923 41.8335 7.85814 41.8335 8.58461C41.8335 9.31108 42.4207 9.9 43.1451 9.9Z" fill="white"/>
</g>
</g>
<g opacity="0.15">
<g opacity="0.15">
<g opacity="0.5">
<path opacity="0.5" d="M70.2746 19.8H48.1843V21.3923H70.2746V19.8Z" fill="url(#paint13_linear_94_519)"/>
</g>
<path opacity="0.5" d="M79.663 19.8H72.8289V21.3923H79.663V19.8Z" fill="url(#paint14_linear_94_519)"/>
<g opacity="0.15">
<path opacity="0.15" d="M44.9398 19.8H43.0759V21.3923H44.9398V19.8Z" fill="url(#paint15_linear_94_519)"/>
</g>
<g opacity="0.8">
<path opacity="0.8" d="M110.037 19.8H100.718V21.3923H110.037V19.8Z" fill="url(#paint16_linear_94_519)"/>
</g>
<g opacity="0.5">
<path opacity="0.5" d="M98.785 19.8H82.9766V21.3923H98.785V19.8Z" fill="url(#paint17_linear_94_519)"/>
</g>
</g>
<g opacity="0.15">
<g opacity="0.15">
<path opacity="0.15" d="M74.2095 49.3615H72.8288H48.1843V50.9538H72.8288H74.2095H79.663V49.3615H74.2095Z" fill="url(#paint18_linear_94_519)"/>
</g>
<g opacity="0.15">
<path opacity="0.15" d="M44.9398 49.3615H43.0759V50.9538H44.9398V49.3615Z" fill="url(#paint19_linear_94_519)"/>
</g>
<g opacity="0.5">
<path opacity="0.5" d="M105.895 49.3615H100.718V50.9538H105.895V49.3615Z" fill="url(#paint20_linear_94_519)"/>
</g>
<path opacity="0.5" d="M98.785 49.3615H82.9766V50.9538H98.785V49.3615Z" fill="url(#paint21_linear_94_519)"/>
</g>
<g opacity="0.15">
<g opacity="0.15">
<path opacity="0.15" d="M52.6714 24.7154H48.1843V26.3077H52.6714V24.7154Z" fill="url(#paint22_linear_94_519)"/>
</g>
<path opacity="0.5" d="M80.1462 24.7154H54.6733V26.3077H80.1462V24.7154Z" fill="url(#paint23_linear_94_519)"/>
<g opacity="0.15">
<path opacity="0.15" d="M44.9398 24.7154H43.0759V26.3077H44.9398V24.7154Z" fill="url(#paint24_linear_94_519)"/>
</g>
<g opacity="0.5">
<path opacity="0.5" d="M120.875 24.7154H82.9766V26.3077H120.875V24.7154Z" fill="url(#paint25_linear_94_519)"/>
</g>
</g>
<g opacity="0.15">
<g opacity="0.15">
<path opacity="0.15" d="M52.6714 54.2769H48.1843V55.8692H52.6714V54.2769Z" fill="url(#paint26_linear_94_519)"/>
</g>
<g opacity="0.15">
<path opacity="0.15" d="M89.2586 54.2769H84.7715V55.8692H89.2586V54.2769Z" fill="url(#paint27_linear_94_519)"/>
</g>
<path opacity="0.5" d="M80.1462 54.2769H54.6733V55.8692H80.1462V54.2769Z" fill="url(#paint28_linear_94_519)"/>
<g opacity="0.15">
<path opacity="0.15" d="M44.9398 54.2769H43.0759V55.8692H44.9398V54.2769Z" fill="url(#paint29_linear_94_519)"/>
</g>
<g opacity="0.15">
<path opacity="0.15" d="M120.806 54.2769H93.1934V55.8692H120.806V54.2769Z" fill="url(#paint30_linear_94_519)"/>
</g>
</g>
<g opacity="0.15">
<g opacity="0.3">
<path opacity="0.3" d="M61.9217 29.6307H48.1843V31.223H61.9217V29.6307Z" fill="url(#paint31_linear_94_519)"/>
</g>
<g opacity="0.15">
<path opacity="0.15" d="M70.2747 29.6307H63.5786V31.223H70.2747V29.6307Z" fill="url(#paint32_linear_94_519)"/>
</g>
<g opacity="0.15">
<path opacity="0.15" d="M44.9398 29.6307H43.0759V31.223H44.9398V29.6307Z" fill="url(#paint33_linear_94_519)"/>
</g>
<g opacity="0.15">
<path opacity="0.15" d="M94.0217 29.6307H73.312V31.223H94.0217V29.6307Z" fill="url(#paint34_linear_94_519)"/>
</g>
<path opacity="0.5" d="M120.875 29.6307H96.2998V31.223H120.875V29.6307Z" fill="url(#paint35_linear_94_519)"/>
</g>
<g opacity="0.15">
<g opacity="0.15">
<path opacity="0.15" d="M84.6334 34.5461H48.1843V36.1384H84.6334V34.5461Z" fill="url(#paint36_linear_94_519)"/>
</g>
<g opacity="0.15">
<path opacity="0.15" d="M44.9398 34.5461H43.0759V36.1384H44.9398V34.5461Z" fill="url(#paint37_linear_94_519)"/>
</g>
<g opacity="0.15">
<path opacity="0.15" d="M113.351 34.5461H86.4973V36.1384H113.351V34.5461Z" fill="url(#paint38_linear_94_519)"/>
</g>
</g>
<g opacity="0.15">
<path opacity="0.5" d="M66.8921 39.5308H48.1843V41.1231H66.8921V39.5308Z" fill="url(#paint39_linear_94_519)"/>
<g opacity="0.15">
<path opacity="0.15" d="M44.9398 39.5308H43.0759V41.1231H44.9398V39.5308Z" fill="url(#paint40_linear_94_519)"/>
</g>
<g opacity="0.5">
<path opacity="0.5" d="M113.351 39.5308H77.7302V41.1231H113.351V39.5308Z" fill="url(#paint41_linear_94_519)"/>
</g>
<g opacity="0.15">
<path opacity="0.15" d="M120.875 39.5308H116.043V41.1231H120.875V39.5308Z" fill="url(#paint42_linear_94_519)"/>
</g>
<g opacity="0.15">
<path opacity="0.15" d="M74.2094 39.5308H69.3772V41.1231H74.2094V39.5308Z" fill="url(#paint43_linear_94_519)"/>
</g>
</g>
<g opacity="0.15">
<g opacity="0.15">
<path opacity="0.15" d="M57.5727 44.4462H48.1843V46.0385H57.5727V44.4462Z" fill="url(#paint44_linear_94_519)"/>
</g>
<g opacity="0.15">
<path opacity="0.15" d="M76.4875 44.4462H67.0991V46.0385H76.4875V44.4462Z" fill="url(#paint45_linear_94_519)"/>
</g>
<g opacity="0.15">
<path opacity="0.15" d="M44.9398 44.4462H43.0759V46.0385H44.9398V44.4462Z" fill="url(#paint46_linear_94_519)"/>
</g>
<g opacity="0.3">
<path opacity="0.3" d="M104.377 44.4462H80.0083V46.0385H104.377V44.4462Z" fill="url(#paint47_linear_94_519)"/>
</g>
<path opacity="0.5" d="M120.875 44.4462H107.621V46.0385H120.875V44.4462Z" fill="url(#paint48_linear_94_519)"/>
<g opacity="0.5">
<path opacity="0.5" d="M64.9592 44.4462H60.127V46.0385H64.9592V44.4462Z" fill="url(#paint49_linear_94_519)"/>
</g>
</g>
</g>
</g>
<path d="M31.7549 101.7H44.871V88.5461H31.7549V101.7Z" fill="url(#paint50_linear_94_519)"/>
<path d="M177.965 78.3692H214V42.3H177.965V78.3692Z" fill="url(#paint51_linear_94_519)"/>
<path d="M113.489 66.6693C113.489 66.6693 116.319 72.4846 116.526 72.4154C116.734 72.2769 123.154 66.6693 123.154 66.6693L121.014 58.1539H119.081L114.179 59.7462L113.489 66.6693Z" fill="#ECA592"/>
<path d="M105.343 69.2308C98.3709 69.5077 86.0142 105.162 90.8464 105.854C97.4045 110.354 116.595 71.0308 105.343 69.2308Z" fill="#ECA592"/>
<path d="M151.043 194.4C151.526 194.331 151.94 193.915 151.871 193.431L146.763 141.023C146.694 140.538 146.279 140.123 145.796 140.192C145.313 140.262 144.899 140.677 144.968 141.162L150.076 193.569C150.076 194.123 150.49 194.469 151.043 194.4Z" fill="url(#paint52_linear_94_519)"/>
<path d="M133.439 194.4C133.923 194.331 134.337 193.915 134.268 193.431L129.159 141.023C129.09 140.538 128.676 140.123 128.193 140.192C127.71 140.262 127.295 140.677 127.364 141.162L132.473 193.569C132.473 194.123 132.956 194.469 133.439 194.4Z" fill="url(#paint53_linear_94_519)"/>
<path d="M90.5703 194.4C90.0871 194.331 89.6729 193.915 89.7419 193.431L94.8503 141.023C94.9193 140.538 95.3335 140.123 95.8168 140.192C96.3 140.262 96.7142 140.677 96.6452 141.162L91.5368 193.569C91.5368 194.123 91.1226 194.469 90.5703 194.4Z" fill="url(#paint54_linear_94_519)"/>
<path d="M113.213 194.4C112.73 194.331 112.315 193.915 112.385 193.431L117.493 141.023C117.562 140.538 117.976 140.123 118.459 140.192C118.943 140.262 119.357 140.677 119.288 141.162L114.179 193.569C114.179 194.123 113.696 194.469 113.213 194.4Z" fill="url(#paint55_linear_94_519)"/>
<path d="M89.7419 141.646C89.7419 144.346 91.951 146.562 94.6432 146.562H148.557C149.938 146.562 151.112 146.008 152.009 145.108C152.906 144.208 153.459 142.962 153.459 141.646C153.459 141.162 153.39 140.746 153.252 140.331C152.699 138.254 150.766 136.731 148.557 136.731H94.6432C93.2626 136.731 92.089 137.285 91.1916 138.185C90.6394 138.808 90.1561 139.5 89.949 140.331C89.811 140.746 89.7419 141.162 89.7419 141.646Z" fill="url(#paint56_linear_94_519)"/>
<path d="M89.949 140.331C90.5012 142.408 92.4341 143.931 94.6432 143.931H148.557C149.938 143.931 151.112 143.377 152.009 142.477C152.561 141.923 153.044 141.162 153.252 140.331C152.699 138.254 150.766 136.731 148.557 136.731H94.6432C93.2625 136.731 92.089 137.285 91.1916 138.185C90.5703 138.738 90.1561 139.5 89.949 140.331Z" fill="url(#paint57_linear_94_519)"/>
<path d="M154.701 108.9C154.701 123.577 150.283 135.415 134.337 135.415C119.219 135.415 113.972 123.508 113.972 108.9C113.972 94.2923 112.73 69.1616 134.337 69.1616C156.703 69.1616 154.701 94.2923 154.701 108.9Z" fill="url(#paint58_linear_94_519)"/>
<path d="M151.733 108.9C151.733 123.577 147.315 135.415 131.368 135.415C116.25 135.415 111.004 123.508 111.004 108.9C111.004 94.2923 109.761 69.1616 131.368 69.1616C153.666 69.1616 151.733 94.2923 151.733 108.9Z" fill="url(#paint59_linear_94_519)"/>
<path d="M120.944 125.723C122.877 134.238 113.972 132.162 106.655 132.369C95.0573 132.3 73.3122 137.7 70.6889 133.754C64.1309 123.023 114.593 115.823 117.355 118.592C118.597 119.838 119.909 123.023 120.944 125.723Z" fill="#CE9789"/>
<path d="M71.6555 128.908C80.1464 122.885 79.111 173.008 76.7639 184.431C74.4168 195.854 72.0697 178.546 70.551 160.269C69.0323 141.992 68.2729 131.262 71.6555 128.908Z" fill="#CE9789"/>
<path d="M79.5942 181.662L78.7658 187.615L71.4484 187.546L71.3103 181.454L79.5942 181.662Z" fill="#CE9789"/>
<path d="M71.4482 187.615C71.4482 187.615 70.4128 190.177 66.0637 193.5C61.7147 196.823 60.5412 196.131 60.4721 197.377C60.4031 198.623 78.6276 197.515 78.6276 197.515L78.8347 187.615C78.7657 187.615 71.4482 187.338 71.4482 187.615Z" fill="url(#paint60_linear_94_519)"/>
<path d="M70.4128 182.908L80.3535 182.977C80.3535 182.977 83.8051 154.869 82.5625 141.992C82.5625 141.992 98.509 140.815 110.728 139.431C111.97 139.292 113.075 139.154 114.248 139.015C115.698 138.808 117.079 138.669 118.321 138.462C129.988 136.8 136.339 136.385 133.853 122.469C133.853 122.469 130.126 120.6 125.984 118.523C125.501 118.315 125.086 118.038 124.603 117.831C120.116 115.615 115.629 113.331 115.284 113.192C114.663 112.915 103.686 118.177 103.686 118.177C103.686 118.177 73.6574 121.708 69.3774 128.7C65.0283 135.692 70.4128 182.908 70.4128 182.908Z" fill="url(#paint61_linear_94_519)"/>
<path d="M104.653 180.346V185.885L113.627 185.954L113.558 181.038L104.653 180.346Z" fill="#CE9789"/>
<path d="M104.584 185.815C104.446 188.031 102.168 195.577 102.099 197.515C116.319 197.862 115.905 200.769 113.627 185.885L104.584 185.815Z" fill="url(#paint62_linear_94_519)"/>
<path d="M103.617 181.8L114.524 181.869C117.148 163.523 117.079 142.962 117.493 142.062C117.562 141.854 118.183 141.715 119.15 141.577C122.118 141.231 128.676 141.092 136.063 139.569C145.934 137.631 141.792 124.754 141.792 124.754L134.13 121.846L127.364 117.762C127.364 117.762 102.375 123.785 100.442 131.4C98.1638 140.331 103.617 181.8 103.617 181.8Z" fill="url(#paint63_linear_94_519)"/>
<path d="M118.942 141.438L119.219 141.577C122.187 141.231 128.745 141.092 136.131 139.569C146.003 137.631 141.861 124.754 141.861 124.754L134.199 121.846C134.544 122.4 138.617 128.908 135.786 133.546C132.749 138.392 123.775 141.369 118.942 141.438Z" fill="#E8E4D8"/>
<path d="M105.895 67.7769L105.826 76.5692L105.688 93.8769C105.688 93.8769 105.55 94.0846 105.274 94.5C105.205 94.5692 105.136 94.7077 105.067 94.8462C104.86 95.1923 104.584 95.6769 104.239 96.1615L100.304 93.5308L92.8484 88.4769C94.7813 83.5615 96.7142 78.7846 98.0948 76.2231C101.961 69.3 105.895 67.7769 105.895 67.7769Z" fill="url(#paint64_linear_94_519)"/>
<path d="M105.895 76.5692L105.757 93.8769C105.757 93.8769 105.619 94.0846 105.343 94.5C105.274 94.5692 105.205 94.7077 105.136 94.8461C104.929 95.1923 104.653 95.6769 104.308 96.1615L100.373 93.5308C100.511 88.6846 100.442 86.4692 100.373 82.7308C100.304 78.7154 101.615 73.5231 101.615 73.5231C101.615 73.5231 103.755 75.0461 105.895 76.5692Z" fill="#E8E4D8"/>
<path d="M113.489 66.1846C112.177 66.2539 109.761 66.6 108.657 66.8077C105.067 67.5692 102.72 69.3692 101.546 73.8C99.9586 79.5462 103.617 118.108 103.617 118.108C129.573 115.338 138.893 125.723 141.24 125.169C143.587 124.615 142.966 123.577 141.447 114.023C139.928 104.469 138.064 78.5077 136.753 72.9692C135.579 67.9846 129.781 66.8769 126.467 66.6692C125.017 66.6 123.222 66.5308 123.222 66.5308C123.222 66.5308 114.593 72.2077 113.489 66.1846Z" fill="url(#paint65_linear_94_519)"/>
<path d="M129.643 80.3077C129.643 80.3077 134.82 94.9154 135.441 96.6461C135.994 98.3769 135.717 99.8308 133.094 100.938C130.471 102.046 137.167 104.054 137.305 103.708C137.443 103.292 146.072 95.7461 145.589 95.3308C145.037 94.7769 129.643 80.3077 129.643 80.3077Z" fill="#E8E4D8"/>
<path d="M131.921 70.6846C127.296 75.8769 144.277 109.592 148.143 106.615C155.875 105.023 141.033 63.8308 131.921 70.6846Z" fill="#CE9789"/>
<path d="M147.039 87.8538C147.039 87.8538 152.63 101.908 150.214 105.023C147.798 108.138 124.741 110.077 124.741 110.077L123.775 103.569C123.775 103.569 139.79 99.6231 139.859 99.4154C139.928 99.2077 135.993 92.2154 135.993 92.2154L147.039 87.8538Z" fill="#ECA592"/>
<path d="M112.522 50.0538L118.321 47.5615L123.015 51.5769C123.015 51.5769 123.015 52.8231 122.877 54.4846C123.291 54.8308 123.775 55.2461 123.775 55.3846C123.775 55.6615 122.394 59.3308 122.256 59.4C121.566 62.1692 118.321 64.8692 116.25 64.8C113.213 64.7308 113.006 61.4077 112.522 58.8461C112.039 56.1461 112.522 50.0538 112.522 50.0538Z" fill="#ECA592"/>
<path d="M123.499 58.1538C124.189 56.7692 124.672 55.2462 124.879 52.2C125.017 50.1923 124.603 47.7692 123.015 46.8692C121.497 45.9692 120.047 46.3154 118.943 45.2077C117.838 44.1 116.595 43.9615 115.284 44.4462C113.972 44.9308 113.696 46.7308 112.453 46.7308C111.211 46.7308 109.071 49.9846 112.384 51.3692C112.73 51.5077 113.489 50.8154 113.489 50.8154C113.489 50.8154 116.112 51.7154 117.976 51.5769C119.84 51.4385 120.806 51.0923 120.806 51.0923L121.082 55.3154C121.082 55.3154 122.601 53.9308 123.153 54.9C123.499 55.5231 122.118 59.6769 121.773 60.7154C121.497 61.4077 123.153 58.8461 123.499 58.1538Z" fill="url(#paint66_linear_94_519)"/>
<path d="M150.697 103.5C150.697 104.608 150.007 105.646 149.041 106.2C141.516 110.562 108.242 111.115 109.14 108.762C109.14 106.892 150.835 95.1231 150.697 103.5Z" fill="#ECA592"/>
<path d="M113.972 106.685L114.317 106.408L113.42 105.923L111.832 105.162C111.418 104.954 110.935 104.885 110.521 104.885L108.588 105.508C108.588 105.508 108.311 106.062 109.416 105.992C109.692 105.992 110.106 106.2 110.451 106.408L109.347 106.615L106.862 107.169C106.171 107.377 106.931 110.562 108.242 110.769L108.933 110.908C109.899 110.977 110.659 111.185 111.625 110.838L114.11 109.731L113.972 106.685Z" fill="#CE9789"/>
<path d="M135.717 93.1846C133.37 88.8231 130.402 83.1462 129.573 80.3077C129.573 80.3077 124.396 69.5769 128.262 67.8462C128.814 67.6385 129.85 67.2231 130.402 67.3615C134.337 68.3308 138.479 71.1692 141.24 75.2538C143.104 77.9538 145.589 82.8692 147.591 87.9923L135.717 93.1846Z" fill="url(#paint67_linear_94_519)"/>
<path d="M166.022 194.4C166.506 194.331 166.92 193.915 166.851 193.431L159.602 115.338C159.533 114.854 159.119 114.438 158.636 114.508C158.153 114.577 157.739 114.992 157.808 115.477L165.056 193.569C165.125 194.123 165.539 194.469 166.022 194.4Z" fill="url(#paint68_linear_94_519)"/>
<path d="M25.0586 194.4C24.5754 194.331 24.1612 193.915 24.2302 193.431L31.4786 115.338C31.5476 114.854 31.9618 114.438 32.445 114.508C32.9283 114.577 33.3425 114.992 33.2734 115.477L26.0941 193.569C26.025 194.123 25.6109 194.469 25.0586 194.4Z" fill="url(#paint69_linear_94_519)"/>
<path d="M25.4038 115.615H165.677C167.265 115.615 168.508 114.3 168.508 112.777C168.508 111.185 167.196 109.938 165.677 109.938H25.4038C23.8161 109.938 22.5735 111.254 22.5735 112.777C22.5735 114.369 23.8161 115.615 25.4038 115.615Z" fill="url(#paint70_linear_94_519)"/>
<path d="M112.384 109.869H85.6689V108.208H110.728C111.625 108.208 112.384 108.969 112.384 109.869Z" fill="url(#paint71_linear_94_519)"/>
<path d="M64.4071 109.869H98.6471L95.3336 88.7539C95.2645 88.1308 94.7123 87.7154 94.091 87.7154H62.3361C61.5768 87.7154 60.9555 88.4077 61.0935 89.1692L64.4071 109.869Z" fill="url(#paint72_linear_94_519)"/>
<path d="M4.34893 81.8308H91.6747C92.9173 81.8308 93.8838 80.8615 93.8838 79.6154V22.9846C93.8838 21.7385 92.9173 20.7692 91.6747 20.7692H4.34893C3.10634 20.7692 2.13989 21.7385 2.13989 22.9846V79.6154C2.13989 80.8615 3.10634 81.8308 4.34893 81.8308Z" fill="url(#paint73_linear_94_519)"/>
<path d="M2.20898 29.5616H93.9529V22.6385C93.9529 21.3923 92.9864 20.4231 91.7438 20.4231H4.41802C3.17544 20.4231 2.20898 21.3923 2.20898 22.6385V29.5616Z" fill="url(#paint74_linear_94_519)"/>
<path d="M21.8141 26.3077C22.5384 26.3077 23.1257 25.7188 23.1257 24.9923C23.1257 24.2659 22.5384 23.6769 21.8141 23.6769C21.0897 23.6769 20.5024 24.2659 20.5024 24.9923C20.5024 25.7188 21.0897 26.3077 21.8141 26.3077Z" fill="white"/>
<path d="M15.4632 26.3077C16.1876 26.3077 16.7748 25.7188 16.7748 24.9923C16.7748 24.2659 16.1876 23.6769 15.4632 23.6769C14.7388 23.6769 14.1516 24.2659 14.1516 24.9923C14.1516 25.7188 14.7388 26.3077 15.4632 26.3077Z" fill="white"/>
<path d="M9.18124 26.3077C9.90563 26.3077 10.4929 25.7188 10.4929 24.9923C10.4929 24.2659 9.90563 23.6769 9.18124 23.6769C8.45686 23.6769 7.86963 24.2659 7.86963 24.9923C7.86963 25.7188 8.45686 26.3077 9.18124 26.3077Z" fill="white"/>
<g opacity="0.5">
<path opacity="0.5" d="M36.2419 36.2077H14.1516V37.8H36.2419V36.2077Z" fill="url(#paint75_linear_94_519)"/>
</g>
<path opacity="0.5" d="M45.6994 36.2077H38.8652V37.8H45.6994V36.2077Z" fill="white"/>
<path d="M10.9071 36.2077H9.04321V37.8H10.9071V36.2077Z" fill="url(#paint76_linear_94_519)"/>
<g opacity="0.8">
<path opacity="0.8" d="M76.0735 36.2077H66.7542V37.8H76.0735V36.2077Z" fill="url(#paint77_linear_94_519)"/>
</g>
<g opacity="0.5">
<path opacity="0.5" d="M64.7522 36.2077H48.9438V37.8H64.7522V36.2077Z" fill="url(#paint78_linear_94_519)"/>
</g>
<path d="M40.1768 65.7692H38.8652H14.1516V67.3615H38.8652H40.1768H45.6994V65.7692H40.1768Z" fill="url(#paint79_linear_94_519)"/>
<path d="M10.9071 65.7692H9.04321V67.3615H10.9071V65.7692Z" fill="url(#paint80_linear_94_519)"/>
<g opacity="0.5">
<path opacity="0.5" d="M71.9316 65.7692H66.7542V67.3615H71.9316V65.7692Z" fill="url(#paint81_linear_94_519)"/>
</g>
<path opacity="0.5" d="M64.7522 65.7692H48.9438V67.3615H64.7522V65.7692Z" fill="white"/>
<path d="M18.6387 41.1231H14.1516V42.7154H18.6387V41.1231Z" fill="url(#paint82_linear_94_519)"/>
<path opacity="0.5" d="M46.1135 41.1231H20.6406V42.7154H46.1135V41.1231Z" fill="url(#paint83_linear_94_519)"/>
<path d="M10.9071 41.1231H9.04321V42.7154H10.9071V41.1231Z" fill="url(#paint84_linear_94_519)"/>
<g opacity="0.5">
<path opacity="0.5" d="M86.8426 41.1231H48.9438V42.7154H86.8426V41.1231Z" fill="url(#paint85_linear_94_519)"/>
</g>
<path d="M18.6387 70.6846H14.1516V72.2769H18.6387V70.6846Z" fill="url(#paint86_linear_94_519)"/>
<path d="M55.2259 70.6846H50.7388V72.2769H55.2259V70.6846Z" fill="url(#paint87_linear_94_519)"/>
<path opacity="0.5" d="M46.1135 70.6846H20.6406V72.2769H46.1135V70.6846Z" fill="url(#paint88_linear_94_519)"/>
<path d="M10.9071 70.6846H9.04321V72.2769H10.9071V70.6846Z" fill="url(#paint89_linear_94_519)"/>
<path d="M86.8426 70.6846H59.2297V72.2769H86.8426V70.6846Z" fill="url(#paint90_linear_94_519)"/>
<g opacity="0.3">
<path opacity="0.3" d="M27.889 46.0385H14.1516V47.6308H27.889V46.0385Z" fill="url(#paint91_linear_94_519)"/>
</g>
<path d="M36.242 46.0385H29.5459V47.6308H36.242V46.0385Z" fill="url(#paint92_linear_94_519)"/>
<path d="M10.9071 46.0385H9.04321V47.6308H10.9071V46.0385Z" fill="url(#paint93_linear_94_519)"/>
<path d="M60.0581 46.0385H39.3484V47.6308H60.0581V46.0385Z" fill="url(#paint94_linear_94_519)"/>
<path opacity="0.5" d="M86.8426 46.0385H62.2671V47.6308H86.8426V46.0385Z" fill="white"/>
<path d="M50.6006 51.0231H14.1516V52.6154H50.6006V51.0231Z" fill="url(#paint95_linear_94_519)"/>
<path d="M10.9071 51.0231H9.04321V52.6154H10.9071V51.0231Z" fill="url(#paint96_linear_94_519)"/>
<path d="M79.3181 51.0231H52.4646V52.6154H79.3181V51.0231Z" fill="url(#paint97_linear_94_519)"/>
<path opacity="0.5" d="M32.8594 55.9385H14.1516V57.5308H32.8594V55.9385Z" fill="white"/>
<path d="M10.9071 55.9385H9.04321V57.5308H10.9071V55.9385Z" fill="url(#paint98_linear_94_519)"/>
<g opacity="0.5">
<path opacity="0.5" d="M79.387 55.9385H43.7664V57.5308H79.387V55.9385Z" fill="url(#paint99_linear_94_519)"/>
</g>
<path d="M86.9116 55.9385H82.0793V57.5308H86.9116V55.9385Z" fill="url(#paint100_linear_94_519)"/>
<path d="M40.1767 55.9385H35.3445V57.5308H40.1767V55.9385Z" fill="url(#paint101_linear_94_519)"/>
<path d="M23.54 60.8539H14.1516V62.4462H23.54V60.8539Z" fill="url(#paint102_linear_94_519)"/>
<path d="M42.5239 60.8539H33.1355V62.4462H42.5239V60.8539Z" fill="url(#paint103_linear_94_519)"/>
<path d="M10.9071 60.8539H9.04321V62.4462H10.9071V60.8539Z" fill="url(#paint104_linear_94_519)"/>
<g opacity="0.3">
<path opacity="0.3" d="M70.4128 60.8539H46.0444V62.4462H70.4128V60.8539Z" fill="url(#paint105_linear_94_519)"/>
</g>
<path opacity="0.5" d="M86.8426 60.8539H73.5884V62.4462H86.8426V60.8539Z" fill="url(#paint106_linear_94_519)"/>
<g opacity="0.5">
<path opacity="0.5" d="M30.9265 60.8539H26.0942V62.4462H30.9265V60.8539Z" fill="url(#paint107_linear_94_519)"/>
</g>
<path d="M144.001 69.9231H197.915C198.675 69.9231 199.296 69.3 199.296 68.5385V33.6462C199.296 32.8846 198.675 32.2615 197.915 32.2615H144.001C143.242 32.2615 142.621 32.8846 142.621 33.6462V68.5385C142.621 69.3 143.242 69.9231 144.001 69.9231Z" fill="white"/>
<path d="M142.621 37.8692H199.227V33.5769C199.227 32.8154 198.606 32.1923 197.846 32.1923H143.932C143.173 32.1923 142.552 32.8154 142.552 33.5769V37.8692H142.621Z" fill="url(#paint108_linear_94_519)"/>
<path d="M154.701 35.8615C155.159 35.8615 155.53 35.4896 155.53 35.0308C155.53 34.572 155.159 34.2 154.701 34.2C154.244 34.2 153.873 34.572 153.873 35.0308C153.873 35.4896 154.244 35.8615 154.701 35.8615Z" fill="white"/>
<path d="M150.835 35.8615C151.293 35.8615 151.664 35.4896 151.664 35.0308C151.664 34.572 151.293 34.2 150.835 34.2C150.378 34.2 150.007 34.572 150.007 35.0308C150.007 35.4896 150.378 35.8615 150.835 35.8615Z" fill="white"/>
<path d="M146.97 35.8615C147.427 35.8615 147.798 35.4896 147.798 35.0308C147.798 34.572 147.427 34.2 146.97 34.2C146.512 34.2 146.141 34.572 146.141 35.0308C146.141 35.4896 146.512 35.8615 146.97 35.8615Z" fill="white"/>
<path d="M176.613 62.676C178.237 61.6041 177.04 56.9029 173.938 52.1755C170.836 47.4482 167.005 44.4849 165.381 45.5568C163.756 46.6287 164.954 51.3299 168.056 56.0573C171.158 60.7846 174.989 63.7479 176.613 62.676Z" stroke="url(#paint109_linear_94_519)" stroke-miterlimit="10"/>
<path d="M173.935 56.0524C177.037 51.3251 178.235 46.6238 176.61 45.5519C174.986 44.48 171.155 47.4434 168.053 52.1707C164.951 56.8981 163.754 61.5993 165.378 62.6712C167.003 63.7431 170.834 60.7798 173.935 56.0524Z" stroke="url(#paint110_linear_94_519)" stroke-miterlimit="10"/>
<path d="M170.993 57.6693C176.635 57.6693 181.209 56.0885 181.209 54.1385C181.209 52.1885 176.635 50.6077 170.993 50.6077C165.35 50.6077 160.776 52.1885 160.776 54.1385C160.776 56.0885 165.35 57.6693 170.993 57.6693Z" stroke="url(#paint111_linear_94_519)" stroke-miterlimit="10"/>
<path d="M170.717 55.7308C171.594 55.7308 172.304 55.0178 172.304 54.1384C172.304 53.259 171.594 52.5461 170.717 52.5461C169.84 52.5461 169.129 53.259 169.129 54.1384C169.129 55.0178 169.84 55.7308 170.717 55.7308Z" fill="url(#paint112_linear_94_519)"/>
<path opacity="0.5" d="M159.672 0H144.899V1.03846H159.672V0Z" fill="url(#paint113_linear_94_519)"/>
<path opacity="0.5" d="M166.022 0H161.466V1.03846H166.022V0Z" fill="url(#paint114_linear_94_519)"/>
<path d="M142.69 0H141.447V1.03846H142.69V0Z" fill="url(#paint115_linear_94_519)"/>
<path opacity="0.8" d="M186.387 0H180.105V1.03846H186.387V0Z" fill="url(#paint116_linear_94_519)"/>
<path opacity="0.5" d="M178.793 0H168.231V1.03846H178.793V0Z" fill="url(#paint117_linear_94_519)"/>
<path d="M162.364 19.8H161.466H144.899V20.8384H161.466H162.364H166.023V19.8H162.364Z" fill="url(#paint118_linear_94_519)"/>
<path d="M142.69 19.8H141.447V20.8384H142.69V19.8Z" fill="url(#paint119_linear_94_519)"/>
<path opacity="0.5" d="M183.557 19.8H180.105V20.8384H183.557V19.8Z" fill="url(#paint120_linear_94_519)"/>
<path opacity="0.5" d="M178.793 19.8H168.231V20.8384H178.793V19.8Z" fill="url(#paint121_linear_94_519)"/>
<path d="M147.936 3.32306H144.899V4.36152H147.936V3.32306Z" fill="url(#paint122_linear_94_519)"/>
<path opacity="0.5" d="M166.299 3.32306H149.248V4.36152H166.299V3.32306Z" fill="url(#paint123_linear_94_519)"/>
<path d="M142.69 3.32306H141.447V4.36152H142.69V3.32306Z" fill="url(#paint124_linear_94_519)"/>
<path opacity="0.5" d="M193.635 3.32306H168.231V4.36152H193.635V3.32306Z" fill="url(#paint125_linear_94_519)"/>
<path d="M147.936 23.1231H144.899V24.1616H147.936V23.1231Z" fill="url(#paint126_linear_94_519)"/>
<path d="M172.442 23.1231H169.405V24.1616H172.442V23.1231Z" fill="url(#paint127_linear_94_519)"/>
<path opacity="0.5" d="M166.299 23.1231H149.248V24.1616H166.299V23.1231Z" fill="url(#paint128_linear_94_519)"/>
<path d="M142.69 23.1231H141.447V24.1616H142.69V23.1231Z" fill="url(#paint129_linear_94_519)"/>
<path d="M193.566 23.1231H175.066V24.1616H193.566V23.1231Z" fill="url(#paint130_linear_94_519)"/>
<path opacity="0.3" d="M154.08 6.5769H144.899V7.61537H154.08V6.5769Z" fill="url(#paint131_linear_94_519)"/>
<path d="M159.741 6.5769H155.253V7.61537H159.741V6.5769Z" fill="url(#paint132_linear_94_519)"/>
<path d="M142.69 6.5769H141.447V7.61537H142.69V6.5769Z" fill="url(#paint133_linear_94_519)"/>
<path d="M175.618 6.5769H161.742V7.61537H175.618V6.5769Z" fill="url(#paint134_linear_94_519)"/>
<path opacity="0.5" d="M193.566 6.5769H177.137V7.61537H193.566V6.5769Z" fill="url(#paint135_linear_94_519)"/>
<path d="M169.267 9.90002H144.899V10.9385H169.267V9.90002Z" fill="url(#paint136_linear_94_519)"/>
<path d="M142.69 9.90002H141.447V10.9385H142.69V9.90002Z" fill="url(#paint137_linear_94_519)"/>
<path d="M188.596 9.90002H170.579V10.9385H188.596V9.90002Z" fill="url(#paint138_linear_94_519)"/>
<path opacity="0.5" d="M157.394 13.2231H144.899V14.2615H157.394V13.2231Z" fill="url(#paint139_linear_94_519)"/>
<path d="M142.69 13.2231H141.447V14.2615H142.69V13.2231Z" fill="url(#paint140_linear_94_519)"/>
<path opacity="0.5" d="M188.596 13.2231H164.711V14.2615H188.596V13.2231Z" fill="url(#paint141_linear_94_519)"/>
<path d="M193.635 13.2231H190.391V14.2615H193.635V13.2231Z" fill="url(#paint142_linear_94_519)"/>
<path d="M162.364 13.2231H159.119V14.2615H162.364V13.2231Z" fill="url(#paint143_linear_94_519)"/>
<path d="M151.181 16.4769H144.899V17.5154H151.181V16.4769Z" fill="url(#paint144_linear_94_519)"/>
<path d="M163.883 16.4769H157.601V17.5154H163.883V16.4769Z" fill="url(#paint145_linear_94_519)"/>
<path d="M142.69 16.4769H141.447V17.5154H142.69V16.4769Z" fill="url(#paint146_linear_94_519)"/>
<path opacity="0.3" d="M182.521 16.4769H166.229V17.5154H182.521V16.4769Z" fill="url(#paint147_linear_94_519)"/>
<path opacity="0.5" d="M193.635 16.4769H184.73V17.5154H193.635V16.4769Z" fill="url(#paint148_linear_94_519)"/>
<path opacity="0.5" d="M156.151 16.4769H152.906V17.5154H156.151V16.4769Z" fill="url(#paint149_linear_94_519)"/>
<path d="M95.8168 1.59229H81.8032V14.1231H95.8168V1.59229Z" fill="url(#paint150_linear_94_519)"/>
<path d="M86.5664 10.3846L84.0122 8.58462V7.54615L86.5664 5.74615V6.92308L84.9787 8.03077L86.5664 9.20769V10.3846Z" fill="white"/>
<path d="M87.3948 11.2154L89.4658 4.5H90.2251L88.1541 11.2154H87.3948Z" fill="white"/>
<path d="M91.0535 10.3846V9.20769L92.6412 8.03077L91.0535 6.92308V5.74615L93.6077 7.54615V8.58462L91.0535 10.3846Z" fill="white"/>
<path d="M14.0135 98.6539H0V111.185H14.0135V98.6539Z" fill="url(#paint151_linear_94_519)"/>
<path d="M4.76318 107.446L2.20898 105.646V104.608L4.76318 102.808V103.985L3.17544 105.092L4.76318 106.269V107.446Z" fill="white"/>
<path d="M5.59155 108.277L7.66252 101.562H8.42188L6.35091 108.277H5.59155Z" fill="white"/>
<path d="M9.25024 107.446V106.269L10.838 105.092L9.25024 103.985V102.808L11.8044 104.608V105.646L9.25024 107.446Z" fill="white"/>
<path d="M199.917 92.9769H185.904V105.508H199.917V92.9769Z" fill="url(#paint152_linear_94_519)"/>
<path d="M190.667 101.769L188.113 99.9692V98.9308L190.667 97.1308V98.3077L189.079 99.4154L190.667 100.592V101.769Z" fill="white"/>
<path d="M191.495 102.6L193.566 95.8846H194.326L192.255 102.6H191.495Z" fill="white"/>
<path d="M195.085 101.769V100.592L196.673 99.4154L195.085 98.3077V97.1308L197.639 98.9308V99.9692L195.085 101.769Z" fill="white"/>
<path d="M134.475 93.6692C134.544 93.6 134.682 93.5308 134.889 93.5308L134.475 93.6692Z" fill="url(#paint153_linear_94_519)"/>
<defs>
<linearGradient id="paint0_linear_94_519" x1="171.901" y1="147.047" x2="181.288" y2="166.424" gradientUnits="userSpaceOnUse">
<stop stop-color="#43D4C3"/>
<stop offset="1" stop-color="#5A98FE"/>
</linearGradient>
<linearGradient id="paint1_linear_94_519" x1="173.576" y1="146.236" x2="182.962" y2="165.613" gradientUnits="userSpaceOnUse">
<stop stop-color="#43D4C3"/>
<stop offset="1" stop-color="#5A98FE"/>
</linearGradient>
<linearGradient id="paint2_linear_94_519" x1="202.531" y1="151.463" x2="190.418" y2="171.974" gradientUnits="userSpaceOnUse">
<stop stop-color="#43D4C3"/>
<stop offset="1" stop-color="#5A98FE"/>
</linearGradient>
<linearGradient id="paint3_linear_94_519" x1="202.445" y1="151.412" x2="190.331" y2="171.923" gradientUnits="userSpaceOnUse">
<stop stop-color="#43D4C3"/>
<stop offset="1" stop-color="#5A98FE"/>
</linearGradient>
<linearGradient id="paint4_linear_94_519" x1="175.796" y1="122.818" x2="182.742" y2="153.557" gradientUnits="userSpaceOnUse">
<stop stop-color="#43D4C3"/>
<stop offset="1" stop-color="#5A98FE"/>
</linearGradient>
<linearGradient id="paint5_linear_94_519" x1="176.352" y1="122.692" x2="183.298" y2="153.431" gradientUnits="userSpaceOnUse">
<stop stop-color="#43D4C3"/>
<stop offset="1" stop-color="#5A98FE"/>
</linearGradient>
<linearGradient id="paint6_linear_94_519" x1="197.649" y1="129.505" x2="188.985" y2="157.071" gradientUnits="userSpaceOnUse">
<stop stop-color="#43D4C3"/>
<stop offset="1" stop-color="#5A98FE"/>
</linearGradient>
<linearGradient id="paint7_linear_94_519" x1="199.002" y1="129.93" x2="190.339" y2="157.496" gradientUnits="userSpaceOnUse">
<stop stop-color="#43D4C3"/>
<stop offset="1" stop-color="#5A98FE"/>
</linearGradient>
<linearGradient id="paint8_linear_94_519" x1="178.124" y1="185.513" x2="195.952" y2="185.513" gradientUnits="userSpaceOnUse">
<stop offset="0.0879397" stop-color="#374492"/>
<stop offset="1" stop-color="#014DAE"/>
</linearGradient>
<linearGradient id="paint9_linear_94_519" x1="177.016" y1="178.569" x2="197.035" y2="178.569" gradientUnits="userSpaceOnUse">
<stop stop-color="#43D4C3"/>
<stop offset="1" stop-color="#5A98FE"/>
</linearGradient>
<linearGradient id="paint10_linear_94_519" x1="113.484" y1="59.3216" x2="113.484" y2="1645.58" gradientUnits="userSpaceOnUse">
<stop stop-color="#E2F4FF"/>
<stop offset="1" stop-color="#D7ECFF"/>
</linearGradient>
<linearGradient id="paint11_linear_94_519" x1="81.9872" y1="13.3051" x2="81.9872" y2="63.3653" gradientUnits="userSpaceOnUse">
<stop stop-color="#43D4C3"/>
<stop offset="1" stop-color="#5A98FE"/>
</linearGradient>
<linearGradient id="paint12_linear_94_519" x1="127.964" y1="8.59174" x2="36.2056" y2="8.59174" gradientUnits="userSpaceOnUse">
<stop offset="0.0879397" stop-color="#374492"/>
<stop offset="1" stop-color="#014DAE"/>
</linearGradient>
<linearGradient id="paint13_linear_94_519" x1="59.2153" y1="18.9739" x2="59.2153" y2="55.8255" gradientUnits="userSpaceOnUse">
<stop stop-color="#43D4C3"/>
<stop offset="1" stop-color="#5A98FE"/>
</linearGradient>
<linearGradient id="paint14_linear_94_519" x1="76.2671" y1="18.9739" x2="76.2671" y2="55.8255" gradientUnits="userSpaceOnUse">
<stop offset="0.0386598" stop-color="#FFD744"/>
<stop offset="1" stop-color="#F5C144"/>
</linearGradient>
<linearGradient id="paint15_linear_94_519" x1="43.9795" y1="18.9739" x2="43.9795" y2="55.8255" gradientUnits="userSpaceOnUse">
<stop stop-color="#43D4C3"/>
<stop offset="1" stop-color="#5A98FE"/>
</linearGradient>
<linearGradient id="paint16_linear_94_519" x1="105.402" y1="18.9739" x2="105.402" y2="55.8255" gradientUnits="userSpaceOnUse">
<stop stop-color="#43D4C3"/>
<stop offset="1" stop-color="#5A98FE"/>
</linearGradient>
<linearGradient id="paint17_linear_94_519" x1="90.8335" y1="18.9739" x2="90.8335" y2="55.8255" gradientUnits="userSpaceOnUse">
<stop stop-color="#43D4C3"/>
<stop offset="1" stop-color="#5A98FE"/>
</linearGradient>
<linearGradient id="paint18_linear_94_519" x1="63.9226" y1="18.9739" x2="63.9226" y2="55.8255" gradientUnits="userSpaceOnUse">
<stop stop-color="#43D4C3"/>
<stop offset="1" stop-color="#5A98FE"/>
</linearGradient>
<linearGradient id="paint19_linear_94_519" x1="43.9795" y1="18.9739" x2="43.9795" y2="55.8255" gradientUnits="userSpaceOnUse">
<stop stop-color="#43D4C3"/>
<stop offset="1" stop-color="#5A98FE"/>
</linearGradient>
<linearGradient id="paint20_linear_94_519" x1="103.307" y1="18.9739" x2="103.307" y2="55.8255" gradientUnits="userSpaceOnUse">
<stop stop-color="#43D4C3"/>
<stop offset="1" stop-color="#5A98FE"/>
</linearGradient>
<linearGradient id="paint21_linear_94_519" x1="90.8335" y1="18.9739" x2="90.8335" y2="55.8255" gradientUnits="userSpaceOnUse">
<stop offset="0.0386598" stop-color="#FFD744"/>
<stop offset="1" stop-color="#F5C144"/>
</linearGradient>
<linearGradient id="paint22_linear_94_519" x1="50.4289" y1="18.9739" x2="50.4289" y2="55.8256" gradientUnits="userSpaceOnUse">
<stop stop-color="#43D4C3"/>
<stop offset="1" stop-color="#5A98FE"/>
</linearGradient>
<linearGradient id="paint23_linear_94_519" x1="67.3885" y1="18.9739" x2="67.3885" y2="55.8256" gradientUnits="userSpaceOnUse">
<stop stop-color="#9972FF"/>
<stop offset="1" stop-color="#7F85FF"/>
</linearGradient>
<linearGradient id="paint24_linear_94_519" x1="43.9795" y1="18.9739" x2="43.9795" y2="55.8256" gradientUnits="userSpaceOnUse">
<stop stop-color="#43D4C3"/>
<stop offset="1" stop-color="#5A98FE"/>
</linearGradient>
<linearGradient id="paint25_linear_94_519" x1="101.905" y1="18.9739" x2="101.905" y2="55.8256" gradientUnits="userSpaceOnUse">
<stop stop-color="#43D4C3"/>
<stop offset="1" stop-color="#5A98FE"/>
</linearGradient>
<linearGradient id="paint26_linear_94_519" x1="50.4289" y1="18.9741" x2="50.4289" y2="55.8255" gradientUnits="userSpaceOnUse">
<stop stop-color="#43D4C3"/>
<stop offset="1" stop-color="#5A98FE"/>
</linearGradient>
<linearGradient id="paint27_linear_94_519" x1="87.0079" y1="18.9741" x2="87.0079" y2="55.8255" gradientUnits="userSpaceOnUse">
<stop stop-color="#43D4C3"/>
<stop offset="1" stop-color="#5A98FE"/>
</linearGradient>
<linearGradient id="paint28_linear_94_519" x1="67.3885" y1="18.9741" x2="67.3885" y2="55.8255" gradientUnits="userSpaceOnUse">
<stop stop-color="#9972FF"/>
<stop offset="1" stop-color="#7F85FF"/>
</linearGradient>
<linearGradient id="paint29_linear_94_519" x1="43.9795" y1="18.9741" x2="43.9795" y2="55.8255" gradientUnits="userSpaceOnUse">
<stop stop-color="#43D4C3"/>
<stop offset="1" stop-color="#5A98FE"/>
</linearGradient>
<linearGradient id="paint30_linear_94_519" x1="107.045" y1="18.9741" x2="107.045" y2="55.8255" gradientUnits="userSpaceOnUse">
<stop stop-color="#43D4C3"/>
<stop offset="1" stop-color="#5A98FE"/>
</linearGradient>
<linearGradient id="paint31_linear_94_519" x1="55.0399" y1="18.9738" x2="55.0399" y2="55.8255" gradientUnits="userSpaceOnUse">
<stop stop-color="#43D4C3"/>
<stop offset="1" stop-color="#5A98FE"/>
</linearGradient>
<linearGradient id="paint32_linear_94_519" x1="66.9145" y1="18.9738" x2="66.9145" y2="55.8255" gradientUnits="userSpaceOnUse">
<stop stop-color="#43D4C3"/>
<stop offset="1" stop-color="#5A98FE"/>
</linearGradient>
<linearGradient id="paint33_linear_94_519" x1="43.9795" y1="18.9738" x2="43.9795" y2="55.8255" gradientUnits="userSpaceOnUse">
<stop stop-color="#43D4C3"/>
<stop offset="1" stop-color="#5A98FE"/>
</linearGradient>
<linearGradient id="paint34_linear_94_519" x1="83.6816" y1="18.9738" x2="83.6816" y2="55.8255" gradientUnits="userSpaceOnUse">
<stop stop-color="#43D4C3"/>
<stop offset="1" stop-color="#5A98FE"/>
</linearGradient>
<linearGradient id="paint35_linear_94_519" x1="108.578" y1="18.9738" x2="108.578" y2="55.8255" gradientUnits="userSpaceOnUse">
<stop offset="0.0386598" stop-color="#FFD744"/>
<stop offset="1" stop-color="#F5C144"/>
</linearGradient>
<linearGradient id="paint36_linear_94_519" x1="66.3787" y1="18.9739" x2="66.3787" y2="55.8255" gradientUnits="userSpaceOnUse">
<stop stop-color="#43D4C3"/>
<stop offset="1" stop-color="#5A98FE"/>
</linearGradient>
<linearGradient id="paint37_linear_94_519" x1="43.9795" y1="18.9739" x2="43.9795" y2="55.8255" gradientUnits="userSpaceOnUse">
<stop stop-color="#43D4C3"/>
<stop offset="1" stop-color="#5A98FE"/>
</linearGradient>
<linearGradient id="paint38_linear_94_519" x1="99.9355" y1="18.9739" x2="99.9355" y2="55.8255" gradientUnits="userSpaceOnUse">
<stop stop-color="#43D4C3"/>
<stop offset="1" stop-color="#5A98FE"/>
</linearGradient>
<linearGradient id="paint39_linear_94_519" x1="57.517" y1="18.9738" x2="57.517" y2="55.8256" gradientUnits="userSpaceOnUse">
<stop offset="0.0386598" stop-color="#FFD744"/>
<stop offset="1" stop-color="#F5C144"/>
</linearGradient>
<linearGradient id="paint40_linear_94_519" x1="43.9795" y1="18.9738" x2="43.9795" y2="55.8256" gradientUnits="userSpaceOnUse">
<stop stop-color="#43D4C3"/>
<stop offset="1" stop-color="#5A98FE"/>
</linearGradient>
<linearGradient id="paint41_linear_94_519" x1="95.5591" y1="18.9738" x2="95.5591" y2="55.8256" gradientUnits="userSpaceOnUse">
<stop stop-color="#43D4C3"/>
<stop offset="1" stop-color="#5A98FE"/>
</linearGradient>
<linearGradient id="paint42_linear_94_519" x1="118.463" y1="18.9738" x2="118.463" y2="55.8256" gradientUnits="userSpaceOnUse">
<stop stop-color="#43D4C3"/>
<stop offset="1" stop-color="#5A98FE"/>
</linearGradient>
<linearGradient id="paint43_linear_94_519" x1="71.7489" y1="18.9738" x2="71.7489" y2="55.8256" gradientUnits="userSpaceOnUse">
<stop stop-color="#43D4C3"/>
<stop offset="1" stop-color="#5A98FE"/>
</linearGradient>
<linearGradient id="paint44_linear_94_519" x1="52.8713" y1="18.9738" x2="52.8713" y2="55.8256" gradientUnits="userSpaceOnUse">
<stop stop-color="#43D4C3"/>
<stop offset="1" stop-color="#5A98FE"/>
</linearGradient>
<linearGradient id="paint45_linear_94_519" x1="71.8267" y1="18.9738" x2="71.8267" y2="55.8256" gradientUnits="userSpaceOnUse">
<stop stop-color="#43D4C3"/>
<stop offset="1" stop-color="#5A98FE"/>
</linearGradient>
<linearGradient id="paint46_linear_94_519" x1="43.9795" y1="18.9738" x2="43.9795" y2="55.8256" gradientUnits="userSpaceOnUse">
<stop stop-color="#43D4C3"/>
<stop offset="1" stop-color="#5A98FE"/>
</linearGradient>
<linearGradient id="paint47_linear_94_519" x1="92.206" y1="18.9738" x2="92.206" y2="55.8256" gradientUnits="userSpaceOnUse">
<stop stop-color="#43D4C3"/>
<stop offset="1" stop-color="#5A98FE"/>
</linearGradient>
<linearGradient id="paint48_linear_94_519" x1="114.23" y1="18.9738" x2="114.23" y2="55.8256" gradientUnits="userSpaceOnUse">
<stop stop-color="#9972FF"/>
<stop offset="1" stop-color="#7F85FF"/>
</linearGradient>
<linearGradient id="paint49_linear_94_519" x1="62.5231" y1="18.9738" x2="62.5231" y2="55.8256" gradientUnits="userSpaceOnUse">
<stop stop-color="#43D4C3"/>
<stop offset="1" stop-color="#5A98FE"/>
</linearGradient>
<linearGradient id="paint50_linear_94_519" x1="38.32" y1="89.3458" x2="38.32" y2="284.983" gradientUnits="userSpaceOnUse">
<stop stop-color="#E2F4FF"/>
<stop offset="1" stop-color="#D7ECFF"/>
</linearGradient>
<linearGradient id="paint51_linear_94_519" x1="195.969" y1="44.4317" x2="195.969" y2="583.259" gradientUnits="userSpaceOnUse">
<stop stop-color="#E2F4FF"/>
<stop offset="1" stop-color="#D7ECFF"/>
</linearGradient>
<linearGradient id="paint52_linear_94_519" x1="148.364" y1="185.815" x2="148.364" y2="144.634" gradientUnits="userSpaceOnUse">
<stop stop-color="#294698"/>
<stop offset="1" stop-color="#0E4BA6"/>
</linearGradient>
<linearGradient id="paint53_linear_94_519" x1="130.773" y1="185.815" x2="130.773" y2="144.634" gradientUnits="userSpaceOnUse">
<stop stop-color="#294698"/>
<stop offset="1" stop-color="#0E4BA6"/>
</linearGradient>
<linearGradient id="paint54_linear_94_519" x1="93.2521" y1="185.815" x2="93.2521" y2="144.634" gradientUnits="userSpaceOnUse">
<stop stop-color="#294698"/>
<stop offset="1" stop-color="#0E4BA6"/>
</linearGradient>
<linearGradient id="paint55_linear_94_519" x1="115.862" y1="185.815" x2="115.862" y2="144.634" gradientUnits="userSpaceOnUse">
<stop stop-color="#294698"/>
<stop offset="1" stop-color="#0E4BA6"/>
</linearGradient>
<linearGradient id="paint56_linear_94_519" x1="121.585" y1="135.48" x2="121.585" y2="145.41" gradientUnits="userSpaceOnUse">
<stop stop-color="#43D4C3"/>
<stop offset="1" stop-color="#5A98FE"/>
</linearGradient>
<linearGradient id="paint57_linear_94_519" x1="153.236" y1="140.315" x2="89.9339" y2="140.315" gradientUnits="userSpaceOnUse">
<stop stop-color="#43D4C3"/>
<stop offset="1" stop-color="#5A98FE"/>
</linearGradient>
<linearGradient id="paint58_linear_94_519" x1="140.763" y1="101.904" x2="153.042" y2="101.126" gradientUnits="userSpaceOnUse">
<stop stop-color="#43D4C3"/>
<stop offset="1" stop-color="#5A98FE"/>
</linearGradient>
<linearGradient id="paint59_linear_94_519" x1="150.396" y1="102.306" x2="106.902" y2="102.306" gradientUnits="userSpaceOnUse">
<stop stop-color="#43D4C3"/>
<stop offset="1" stop-color="#5A98FE"/>
</linearGradient>
<linearGradient id="paint60_linear_94_519" x1="78.7969" y1="192.749" x2="60.4228" y2="192.749" gradientUnits="userSpaceOnUse">
<stop stop-color="#9972FF"/>
<stop offset="1" stop-color="#7F85FF"/>
</linearGradient>
<linearGradient id="paint61_linear_94_519" x1="70.0278" y1="168.248" x2="114.09" y2="115.758" gradientUnits="userSpaceOnUse">
<stop stop-color="#294698"/>
<stop offset="1" stop-color="#0F3B82"/>
</linearGradient>
<linearGradient id="paint62_linear_94_519" x1="102.095" y1="191.909" x2="114.832" y2="191.909" gradientUnits="userSpaceOnUse">
<stop stop-color="#9972FF"/>
<stop offset="1" stop-color="#7F85FF"/>
</linearGradient>
<linearGradient id="paint63_linear_94_519" x1="121.282" y1="121.684" x2="121.282" y2="177.823" gradientUnits="userSpaceOnUse">
<stop stop-color="#294698"/>
<stop offset="1" stop-color="#0E4BA6"/>
</linearGradient>
<linearGradient id="paint64_linear_94_519" x1="99.4637" y1="69.8139" x2="99.4637" y2="101.195" gradientUnits="userSpaceOnUse">
<stop stop-color="#9972FF"/>
<stop offset="1" stop-color="#7F85FF"/>
</linearGradient>
<linearGradient id="paint65_linear_94_519" x1="121.946" y1="70.6965" x2="121.946" y2="118.836" gradientUnits="userSpaceOnUse">
<stop stop-color="#9972FF"/>
<stop offset="1" stop-color="#7F85FF"/>
</linearGradient>
<linearGradient id="paint66_linear_94_519" x1="124.897" y1="52.3775" x2="110.668" y2="52.7267" gradientUnits="userSpaceOnUse">
<stop stop-color="#294698"/>
<stop offset="1" stop-color="#0E4BA6"/>
</linearGradient>
<linearGradient id="paint67_linear_94_519" x1="137.255" y1="69.2901" x2="137.255" y2="98.0711" gradientUnits="userSpaceOnUse">
<stop stop-color="#9972FF"/>
<stop offset="1" stop-color="#7F85FF"/>
</linearGradient>
<linearGradient id="paint68_linear_94_519" x1="162.318" y1="110.321" x2="162.318" y2="195.733" gradientUnits="userSpaceOnUse">
<stop stop-color="#294698"/>
<stop offset="1" stop-color="#0E4BA6"/>
</linearGradient>
<linearGradient id="paint69_linear_94_519" x1="28.8015" y1="110.321" x2="28.8015" y2="195.733" gradientUnits="userSpaceOnUse">
<stop stop-color="#294698"/>
<stop offset="1" stop-color="#0E4BA6"/>
</linearGradient>
<linearGradient id="paint70_linear_94_519" x1="95.5596" y1="110.231" x2="95.5596" y2="195.816" gradientUnits="userSpaceOnUse">
<stop stop-color="#294698"/>
<stop offset="1" stop-color="#0E4BA6"/>
</linearGradient>
<linearGradient id="paint71_linear_94_519" x1="98.792" y1="109.054" x2="109.093" y2="109.054" gradientUnits="userSpaceOnUse">
<stop stop-color="#43D4C3"/>
<stop offset="1" stop-color="#5A98FE"/>
</linearGradient>
<linearGradient id="paint72_linear_94_519" x1="79.9228" y1="88.5662" x2="79.9228" y2="110.509" gradientUnits="userSpaceOnUse">
<stop stop-color="#294698"/>
<stop offset="1" stop-color="#0F3B82"/>
</linearGradient>
<linearGradient id="paint73_linear_94_519" x1="47.9912" y1="29.7283" x2="47.9912" y2="79.7886" gradientUnits="userSpaceOnUse">
<stop stop-color="#43D4C3"/>
<stop offset="1" stop-color="#5A98FE"/>
</linearGradient>
<linearGradient id="paint74_linear_94_519" x1="93.9679" y1="25.015" x2="2.20953" y2="25.015" gradientUnits="userSpaceOnUse">
<stop offset="0.0879397" stop-color="#374492"/>
<stop offset="1" stop-color="#014DAE"/>
</linearGradient>
<linearGradient id="paint75_linear_94_519" x1="25.2195" y1="35.3971" x2="25.2195" y2="72.2488" gradientUnits="userSpaceOnUse">
<stop stop-color="#43D4C3"/>
<stop offset="1" stop-color="#5A98FE"/>
</linearGradient>
<linearGradient id="paint76_linear_94_519" x1="9.98371" y1="35.3971" x2="9.98371" y2="72.2488" gradientUnits="userSpaceOnUse">
<stop stop-color="#43D4C3"/>
<stop offset="1" stop-color="#5A98FE"/>
</linearGradient>
<linearGradient id="paint77_linear_94_519" x1="71.4064" y1="35.3971" x2="71.4064" y2="72.2488" gradientUnits="userSpaceOnUse">
<stop stop-color="#43D4C3"/>
<stop offset="1" stop-color="#5A98FE"/>
</linearGradient>
<linearGradient id="paint78_linear_94_519" x1="56.8378" y1="35.3971" x2="56.8378" y2="72.2488" gradientUnits="userSpaceOnUse">
<stop stop-color="#43D4C3"/>
<stop offset="1" stop-color="#5A98FE"/>
</linearGradient>
<linearGradient id="paint79_linear_94_519" x1="29.9268" y1="35.3969" x2="29.9268" y2="72.2488" gradientUnits="userSpaceOnUse">
<stop stop-color="#43D4C3"/>
<stop offset="1" stop-color="#5A98FE"/>
</linearGradient>
<linearGradient id="paint80_linear_94_519" x1="9.98371" y1="35.3969" x2="9.98371" y2="72.2488" gradientUnits="userSpaceOnUse">
<stop stop-color="#43D4C3"/>
<stop offset="1" stop-color="#5A98FE"/>
</linearGradient>
<linearGradient id="paint81_linear_94_519" x1="69.3109" y1="35.3969" x2="69.3109" y2="72.2488" gradientUnits="userSpaceOnUse">
<stop stop-color="#43D4C3"/>
<stop offset="1" stop-color="#5A98FE"/>
</linearGradient>
<linearGradient id="paint82_linear_94_519" x1="16.4331" y1="35.3971" x2="16.4331" y2="72.2489" gradientUnits="userSpaceOnUse">
<stop stop-color="#43D4C3"/>
<stop offset="1" stop-color="#5A98FE"/>
</linearGradient>
<linearGradient id="paint83_linear_94_519" x1="33.3927" y1="35.3971" x2="33.3927" y2="72.2489" gradientUnits="userSpaceOnUse">
<stop stop-color="#9972FF"/>
<stop offset="1" stop-color="#7F85FF"/>
</linearGradient>
<linearGradient id="paint84_linear_94_519" x1="9.98371" y1="35.3971" x2="9.98371" y2="72.2489" gradientUnits="userSpaceOnUse">
<stop stop-color="#43D4C3"/>
<stop offset="1" stop-color="#5A98FE"/>
</linearGradient>
<linearGradient id="paint85_linear_94_519" x1="67.9096" y1="35.3971" x2="67.9096" y2="72.2489" gradientUnits="userSpaceOnUse">
<stop stop-color="#43D4C3"/>
<stop offset="1" stop-color="#5A98FE"/>
</linearGradient>
<linearGradient id="paint86_linear_94_519" x1="16.4331" y1="35.3969" x2="16.4331" y2="72.2488" gradientUnits="userSpaceOnUse">
<stop stop-color="#43D4C3"/>
<stop offset="1" stop-color="#5A98FE"/>
</linearGradient>
<linearGradient id="paint87_linear_94_519" x1="53.0121" y1="35.3969" x2="53.0121" y2="72.2488" gradientUnits="userSpaceOnUse">
<stop stop-color="#43D4C3"/>
<stop offset="1" stop-color="#5A98FE"/>
</linearGradient>
<linearGradient id="paint88_linear_94_519" x1="33.3927" y1="35.3969" x2="33.3927" y2="72.2488" gradientUnits="userSpaceOnUse">
<stop stop-color="#9972FF"/>
<stop offset="1" stop-color="#7F85FF"/>
</linearGradient>
<linearGradient id="paint89_linear_94_519" x1="9.98371" y1="35.3969" x2="9.98371" y2="72.2488" gradientUnits="userSpaceOnUse">
<stop stop-color="#43D4C3"/>
<stop offset="1" stop-color="#5A98FE"/>
</linearGradient>
<linearGradient id="paint90_linear_94_519" x1="73.0495" y1="35.3969" x2="73.0495" y2="72.2488" gradientUnits="userSpaceOnUse">
<stop stop-color="#43D4C3"/>
<stop offset="1" stop-color="#5A98FE"/>
</linearGradient>
<linearGradient id="paint91_linear_94_519" x1="21.0441" y1="35.397" x2="21.0441" y2="72.2488" gradientUnits="userSpaceOnUse">
<stop stop-color="#43D4C3"/>
<stop offset="1" stop-color="#5A98FE"/>
</linearGradient>
<linearGradient id="paint92_linear_94_519" x1="32.9187" y1="35.397" x2="32.9187" y2="72.2488" gradientUnits="userSpaceOnUse">
<stop stop-color="#43D4C3"/>
<stop offset="1" stop-color="#5A98FE"/>
</linearGradient>
<linearGradient id="paint93_linear_94_519" x1="9.98371" y1="35.397" x2="9.98371" y2="72.2488" gradientUnits="userSpaceOnUse">
<stop stop-color="#43D4C3"/>
<stop offset="1" stop-color="#5A98FE"/>
</linearGradient>
<linearGradient id="paint94_linear_94_519" x1="49.6858" y1="35.397" x2="49.6858" y2="72.2488" gradientUnits="userSpaceOnUse">
<stop stop-color="#43D4C3"/>
<stop offset="1" stop-color="#5A98FE"/>
</linearGradient>
<linearGradient id="paint95_linear_94_519" x1="32.3828" y1="35.397" x2="32.3828" y2="72.2488" gradientUnits="userSpaceOnUse">
<stop stop-color="#43D4C3"/>
<stop offset="1" stop-color="#5A98FE"/>
</linearGradient>
<linearGradient id="paint96_linear_94_519" x1="9.98371" y1="35.397" x2="9.98371" y2="72.2488" gradientUnits="userSpaceOnUse">
<stop stop-color="#43D4C3"/>
<stop offset="1" stop-color="#5A98FE"/>
</linearGradient>
<linearGradient id="paint97_linear_94_519" x1="65.9398" y1="35.397" x2="65.9398" y2="72.2488" gradientUnits="userSpaceOnUse">
<stop stop-color="#43D4C3"/>
<stop offset="1" stop-color="#5A98FE"/>
</linearGradient>
<linearGradient id="paint98_linear_94_519" x1="9.98371" y1="35.3971" x2="9.98371" y2="72.2487" gradientUnits="userSpaceOnUse">
<stop stop-color="#43D4C3"/>
<stop offset="1" stop-color="#5A98FE"/>
</linearGradient>
<linearGradient id="paint99_linear_94_519" x1="61.5631" y1="35.3971" x2="61.5631" y2="72.2487" gradientUnits="userSpaceOnUse">
<stop stop-color="#43D4C3"/>
<stop offset="1" stop-color="#5A98FE"/>
</linearGradient>
<linearGradient id="paint100_linear_94_519" x1="84.4677" y1="35.3971" x2="84.4677" y2="72.2487" gradientUnits="userSpaceOnUse">
<stop stop-color="#43D4C3"/>
<stop offset="1" stop-color="#5A98FE"/>
</linearGradient>
<linearGradient id="paint101_linear_94_519" x1="37.7532" y1="35.3971" x2="37.7532" y2="72.2487" gradientUnits="userSpaceOnUse">
<stop stop-color="#43D4C3"/>
<stop offset="1" stop-color="#5A98FE"/>
</linearGradient>
<linearGradient id="paint102_linear_94_519" x1="18.8755" y1="35.3972" x2="18.8755" y2="72.2487" gradientUnits="userSpaceOnUse">
<stop stop-color="#43D4C3"/>
<stop offset="1" stop-color="#5A98FE"/>
</linearGradient>
<linearGradient id="paint103_linear_94_519" x1="37.8309" y1="35.3972" x2="37.8309" y2="72.2487" gradientUnits="userSpaceOnUse">
<stop stop-color="#43D4C3"/>
<stop offset="1" stop-color="#5A98FE"/>
</linearGradient>
<linearGradient id="paint104_linear_94_519" x1="9.98371" y1="35.3972" x2="9.98371" y2="72.2487" gradientUnits="userSpaceOnUse">
<stop stop-color="#43D4C3"/>
<stop offset="1" stop-color="#5A98FE"/>
</linearGradient>
<linearGradient id="paint105_linear_94_519" x1="58.21" y1="35.3972" x2="58.21" y2="72.2487" gradientUnits="userSpaceOnUse">
<stop stop-color="#43D4C3"/>
<stop offset="1" stop-color="#5A98FE"/>
</linearGradient>
<linearGradient id="paint106_linear_94_519" x1="80.2339" y1="35.3972" x2="80.2339" y2="72.2487" gradientUnits="userSpaceOnUse">
<stop stop-color="#9972FF"/>
<stop offset="1" stop-color="#7F85FF"/>
</linearGradient>
<linearGradient id="paint107_linear_94_519" x1="28.5273" y1="35.3972" x2="28.5273" y2="72.2487" gradientUnits="userSpaceOnUse">
<stop stop-color="#43D4C3"/>
<stop offset="1" stop-color="#5A98FE"/>
</linearGradient>
<linearGradient id="paint108_linear_94_519" x1="199.285" y1="35.059" x2="142.646" y2="35.059" gradientUnits="userSpaceOnUse">
<stop offset="0.0879397" stop-color="#374492"/>
<stop offset="1" stop-color="#014DAE"/>
</linearGradient>
<linearGradient id="paint109_linear_94_519" x1="180.641" y1="58.2987" x2="161.283" y2="49.9817" gradientUnits="userSpaceOnUse">
<stop stop-color="#43D4C3"/>
<stop offset="1" stop-color="#5A98FE"/>
</linearGradient>
<linearGradient id="paint110_linear_94_519" x1="175.138" y1="63.828" x2="166.764" y2="44.4486" gradientUnits="userSpaceOnUse">
<stop stop-color="#43D4C3"/>
<stop offset="1" stop-color="#5A98FE"/>
</linearGradient>
<linearGradient id="paint111_linear_94_519" x1="181.495" y1="54.1301" x2="160.436" y2="54.1301" gradientUnits="userSpaceOnUse">
<stop stop-color="#43D4C3"/>
<stop offset="1" stop-color="#5A98FE"/>
</linearGradient>
<linearGradient id="paint112_linear_94_519" x1="170.722" y1="52.5256" x2="170.722" y2="55.7346" gradientUnits="userSpaceOnUse">
<stop stop-color="#43D4C3"/>
<stop offset="1" stop-color="#5A98FE"/>
</linearGradient>
<linearGradient id="paint113_linear_94_519" x1="152.303" y1="-0.545677" x2="152.303" y2="24.1433" gradientUnits="userSpaceOnUse">
<stop stop-color="#E2F4FF"/>
<stop offset="1" stop-color="#D7ECFF"/>
</linearGradient>
<linearGradient id="paint114_linear_94_519" x1="163.727" y1="-0.545677" x2="163.727" y2="24.1433" gradientUnits="userSpaceOnUse">
<stop stop-color="#E2F4FF"/>
<stop offset="1" stop-color="#D7ECFF"/>
</linearGradient>
<linearGradient id="paint115_linear_94_519" x1="142.096" y1="-0.545677" x2="142.096" y2="24.1433" gradientUnits="userSpaceOnUse">
<stop stop-color="#E2F4FF"/>
<stop offset="1" stop-color="#D7ECFF"/>
</linearGradient>
<linearGradient id="paint116_linear_94_519" x1="183.246" y1="-0.545677" x2="183.246" y2="24.1433" gradientUnits="userSpaceOnUse">
<stop stop-color="#E2F4FF"/>
<stop offset="1" stop-color="#D7ECFF"/>
</linearGradient>
<linearGradient id="paint117_linear_94_519" x1="173.486" y1="-0.545677" x2="173.486" y2="24.1433" gradientUnits="userSpaceOnUse">
<stop stop-color="#E2F4FF"/>
<stop offset="1" stop-color="#D7ECFF"/>
</linearGradient>
<linearGradient id="paint118_linear_94_519" x1="155.457" y1="-0.545692" x2="155.457" y2="24.1433" gradientUnits="userSpaceOnUse">
<stop stop-color="#E2F4FF"/>
<stop offset="1" stop-color="#D7ECFF"/>
</linearGradient>
<linearGradient id="paint119_linear_94_519" x1="142.096" y1="-0.545692" x2="142.096" y2="24.1433" gradientUnits="userSpaceOnUse">
<stop stop-color="#E2F4FF"/>
<stop offset="1" stop-color="#D7ECFF"/>
</linearGradient>
<linearGradient id="paint120_linear_94_519" x1="181.842" y1="-0.545692" x2="181.842" y2="24.1433" gradientUnits="userSpaceOnUse">
<stop stop-color="#E2F4FF"/>
<stop offset="1" stop-color="#D7ECFF"/>
</linearGradient>
<linearGradient id="paint121_linear_94_519" x1="173.486" y1="-0.545692" x2="173.486" y2="24.1433" gradientUnits="userSpaceOnUse">
<stop stop-color="#E2F4FF"/>
<stop offset="1" stop-color="#D7ECFF"/>
</linearGradient>
<linearGradient id="paint122_linear_94_519" x1="146.417" y1="-0.545694" x2="146.417" y2="24.1432" gradientUnits="userSpaceOnUse">
<stop stop-color="#E2F4FF"/>
<stop offset="1" stop-color="#D7ECFF"/>
</linearGradient>
<linearGradient id="paint123_linear_94_519" x1="157.779" y1="-0.545694" x2="157.779" y2="24.1432" gradientUnits="userSpaceOnUse">
<stop stop-color="#E2F4FF"/>
<stop offset="1" stop-color="#D7ECFF"/>
</linearGradient>
<linearGradient id="paint124_linear_94_519" x1="142.096" y1="-0.545694" x2="142.096" y2="24.1432" gradientUnits="userSpaceOnUse">
<stop stop-color="#E2F4FF"/>
<stop offset="1" stop-color="#D7ECFF"/>
</linearGradient>
<linearGradient id="paint125_linear_94_519" x1="180.904" y1="-0.545694" x2="180.904" y2="24.1432" gradientUnits="userSpaceOnUse">
<stop stop-color="#E2F4FF"/>
<stop offset="1" stop-color="#D7ECFF"/>
</linearGradient>
<linearGradient id="paint126_linear_94_519" x1="146.417" y1="-0.54565" x2="146.417" y2="24.1433" gradientUnits="userSpaceOnUse">
<stop stop-color="#E2F4FF"/>
<stop offset="1" stop-color="#D7ECFF"/>
</linearGradient>
<linearGradient id="paint127_linear_94_519" x1="170.923" y1="-0.54565" x2="170.923" y2="24.1433" gradientUnits="userSpaceOnUse">
<stop stop-color="#E2F4FF"/>
<stop offset="1" stop-color="#D7ECFF"/>
</linearGradient>
<linearGradient id="paint128_linear_94_519" x1="157.779" y1="-0.54565" x2="157.779" y2="24.1433" gradientUnits="userSpaceOnUse">
<stop stop-color="#E2F4FF"/>
<stop offset="1" stop-color="#D7ECFF"/>
</linearGradient>
<linearGradient id="paint129_linear_94_519" x1="142.096" y1="-0.54565" x2="142.096" y2="24.1433" gradientUnits="userSpaceOnUse">
<stop stop-color="#E2F4FF"/>
<stop offset="1" stop-color="#D7ECFF"/>
</linearGradient>
<linearGradient id="paint130_linear_94_519" x1="184.347" y1="-0.54565" x2="184.347" y2="24.1433" gradientUnits="userSpaceOnUse">
<stop stop-color="#E2F4FF"/>
<stop offset="1" stop-color="#D7ECFF"/>
</linearGradient>
<linearGradient id="paint131_linear_94_519" x1="149.506" y1="-0.5457" x2="149.506" y2="24.1433" gradientUnits="userSpaceOnUse">
<stop stop-color="#E2F4FF"/>
<stop offset="1" stop-color="#D7ECFF"/>
</linearGradient>
<linearGradient id="paint132_linear_94_519" x1="157.461" y1="-0.5457" x2="157.461" y2="24.1433" gradientUnits="userSpaceOnUse">
<stop stop-color="#E2F4FF"/>
<stop offset="1" stop-color="#D7ECFF"/>
</linearGradient>
<linearGradient id="paint133_linear_94_519" x1="142.096" y1="-0.5457" x2="142.096" y2="24.1433" gradientUnits="userSpaceOnUse">
<stop stop-color="#E2F4FF"/>
<stop offset="1" stop-color="#D7ECFF"/>
</linearGradient>
<linearGradient id="paint134_linear_94_519" x1="168.695" y1="-0.5457" x2="168.695" y2="24.1433" gradientUnits="userSpaceOnUse">
<stop stop-color="#E2F4FF"/>
<stop offset="1" stop-color="#D7ECFF"/>
</linearGradient>
<linearGradient id="paint135_linear_94_519" x1="185.374" y1="-0.5457" x2="185.374" y2="24.1433" gradientUnits="userSpaceOnUse">
<stop stop-color="#E2F4FF"/>
<stop offset="1" stop-color="#D7ECFF"/>
</linearGradient>
<linearGradient id="paint136_linear_94_519" x1="157.102" y1="-0.545664" x2="157.102" y2="24.1433" gradientUnits="userSpaceOnUse">
<stop stop-color="#E2F4FF"/>
<stop offset="1" stop-color="#D7ECFF"/>
</linearGradient>
<linearGradient id="paint137_linear_94_519" x1="142.096" y1="-0.545664" x2="142.096" y2="24.1433" gradientUnits="userSpaceOnUse">
<stop stop-color="#E2F4FF"/>
<stop offset="1" stop-color="#D7ECFF"/>
</linearGradient>
<linearGradient id="paint138_linear_94_519" x1="179.584" y1="-0.545664" x2="179.584" y2="24.1433" gradientUnits="userSpaceOnUse">
<stop stop-color="#E2F4FF"/>
<stop offset="1" stop-color="#D7ECFF"/>
</linearGradient>
<linearGradient id="paint139_linear_94_519" x1="151.166" y1="-0.54566" x2="151.166" y2="24.1433" gradientUnits="userSpaceOnUse">
<stop stop-color="#E2F4FF"/>
<stop offset="1" stop-color="#D7ECFF"/>
</linearGradient>
<linearGradient id="paint140_linear_94_519" x1="142.096" y1="-0.54566" x2="142.096" y2="24.1433" gradientUnits="userSpaceOnUse">
<stop stop-color="#E2F4FF"/>
<stop offset="1" stop-color="#D7ECFF"/>
</linearGradient>
<linearGradient id="paint141_linear_94_519" x1="176.652" y1="-0.54566" x2="176.652" y2="24.1433" gradientUnits="userSpaceOnUse">
<stop stop-color="#E2F4FF"/>
<stop offset="1" stop-color="#D7ECFF"/>
</linearGradient>
<linearGradient id="paint142_linear_94_519" x1="191.997" y1="-0.54566" x2="191.997" y2="24.1433" gradientUnits="userSpaceOnUse">
<stop stop-color="#E2F4FF"/>
<stop offset="1" stop-color="#D7ECFF"/>
</linearGradient>
<linearGradient id="paint143_linear_94_519" x1="160.7" y1="-0.54566" x2="160.7" y2="24.1433" gradientUnits="userSpaceOnUse">
<stop stop-color="#E2F4FF"/>
<stop offset="1" stop-color="#D7ECFF"/>
</linearGradient>
<linearGradient id="paint144_linear_94_519" x1="148.053" y1="-0.545674" x2="148.053" y2="24.1433" gradientUnits="userSpaceOnUse">
<stop stop-color="#E2F4FF"/>
<stop offset="1" stop-color="#D7ECFF"/>
</linearGradient>
<linearGradient id="paint145_linear_94_519" x1="160.752" y1="-0.545674" x2="160.752" y2="24.1433" gradientUnits="userSpaceOnUse">
<stop stop-color="#E2F4FF"/>
<stop offset="1" stop-color="#D7ECFF"/>
</linearGradient>
<linearGradient id="paint146_linear_94_519" x1="142.096" y1="-0.545674" x2="142.096" y2="24.1433" gradientUnits="userSpaceOnUse">
<stop stop-color="#E2F4FF"/>
<stop offset="1" stop-color="#D7ECFF"/>
</linearGradient>
<linearGradient id="paint147_linear_94_519" x1="174.405" y1="-0.545674" x2="174.405" y2="24.1433" gradientUnits="userSpaceOnUse">
<stop stop-color="#E2F4FF"/>
<stop offset="1" stop-color="#D7ECFF"/>
</linearGradient>
<linearGradient id="paint148_linear_94_519" x1="189.161" y1="-0.545674" x2="189.161" y2="24.1433" gradientUnits="userSpaceOnUse">
<stop stop-color="#E2F4FF"/>
<stop offset="1" stop-color="#D7ECFF"/>
</linearGradient>
<linearGradient id="paint149_linear_94_519" x1="154.519" y1="-0.545674" x2="154.519" y2="24.1433" gradientUnits="userSpaceOnUse">
<stop stop-color="#E2F4FF"/>
<stop offset="1" stop-color="#D7ECFF"/>
</linearGradient>
<linearGradient id="paint150_linear_94_519" x1="81.8069" y1="7.83579" x2="95.8143" y2="7.83579" gradientUnits="userSpaceOnUse">
<stop offset="0.0879397" stop-color="#374492"/>
<stop offset="1" stop-color="#014DAE"/>
</linearGradient>
<linearGradient id="paint151_linear_94_519" x1="0" y1="104.888" x2="14.0074" y2="104.888" gradientUnits="userSpaceOnUse">
<stop offset="0.0879397" stop-color="#374492"/>
<stop offset="1" stop-color="#014DAE"/>
</linearGradient>
<linearGradient id="paint152_linear_94_519" x1="185.883" y1="99.2196" x2="199.891" y2="99.2196" gradientUnits="userSpaceOnUse">
<stop offset="0.0879397" stop-color="#374492"/>
<stop offset="1" stop-color="#014DAE"/>
</linearGradient>
<linearGradient id="paint153_linear_94_519" x1="134.508" y1="93.6138" x2="134.894" y2="93.6138" gradientUnits="userSpaceOnUse">
<stop stop-color="#9972FF"/>
<stop offset="1" stop-color="#7F85FF"/>
</linearGradient>
</defs>
</svg>
