<svg width="211" height="191" viewBox="0 0 211 191" fill="none" xmlns="http://www.w3.org/2000/svg">
<path d="M29.5804 144.875C29.166 144.615 28.6998 144.355 28.2853 144.095C15.5414 136.139 6.89003 121.891 8.23695 106.602C9.73928 89.7019 27.042 82.3177 39.9931 75.1936C48.2819 70.6175 55.1719 63.4933 58.2284 54.3931C61.7511 43.9409 61.6993 33.0207 68.123 23.6085C73.0963 16.3283 80.9188 11.3882 89.2075 8.68418C105.992 3.22406 125.471 5.66812 141.582 12.2723C156.45 18.3564 169.712 27.7166 182.559 37.2328C193.231 45.1369 205.664 51.0651 209.912 64.8974C214.367 79.5617 204.162 93.1859 193.335 101.87C179.503 112.946 162.977 120.123 146.814 126.987C127.232 135.255 106.821 141.443 86.0992 145.915C67.8122 149.867 46.8313 154.807 29.5804 144.875Z" fill="url(#paint0_linear_94_232)"/>
<path opacity="0.5" d="M137.178 0H117.493V1.40403H137.178V0Z" fill="url(#paint1_linear_94_232)"/>
<path opacity="0.5" d="M145.519 0H139.458V1.40403H145.519V0Z" fill="url(#paint2_linear_94_232)"/>
<path d="M114.54 0H112.882V1.40403H114.54V0Z" fill="url(#paint3_linear_94_232)"/>
<path opacity="0.8" d="M172.665 0H164.324V1.40403H172.665V0Z" fill="url(#paint4_linear_94_232)"/>
<path opacity="0.5" d="M162.511 0H148.472V1.40403H162.511V0Z" fill="url(#paint5_linear_94_232)"/>
<path d="M140.701 26.3646H139.458H117.493V27.7686H139.458H140.701H145.571V26.3646H140.701Z" fill="url(#paint6_linear_94_232)"/>
<path d="M114.54 26.3646H112.882V27.7686H114.54V26.3646Z" fill="url(#paint7_linear_94_232)"/>
<path opacity="0.5" d="M168.935 26.3646H164.324V27.7686H168.935V26.3646Z" fill="url(#paint8_linear_94_232)"/>
<path opacity="0.5" d="M162.511 26.3646H148.472V27.7686H162.511V26.3646Z" fill="url(#paint9_linear_94_232)"/>
<path d="M121.534 4.4201H117.493V5.82413H121.534V4.4201Z" fill="url(#paint10_linear_94_232)"/>
<path opacity="0.5" d="M145.933 4.4201H123.243V5.82413H145.933V4.4201Z" fill="url(#paint11_linear_94_232)"/>
<path d="M114.54 4.4201H112.882V5.82413H114.54V4.4201Z" fill="url(#paint12_linear_94_232)"/>
<path opacity="0.5" d="M182.3 4.4201H148.472V5.82413H182.3V4.4201Z" fill="url(#paint13_linear_94_232)"/>
<path d="M121.534 30.7847H117.493V32.1887H121.534V30.7847Z" fill="url(#paint14_linear_94_232)"/>
<path d="M154.119 30.7847H150.078V32.1887H154.119V30.7847Z" fill="url(#paint15_linear_94_232)"/>
<path opacity="0.5" d="M145.933 30.7847H123.243V32.1887H145.933V30.7847Z" fill="url(#paint16_linear_94_232)"/>
<path d="M114.54 30.7847H112.882V32.1887H114.54V30.7847Z" fill="url(#paint17_linear_94_232)"/>
<path d="M182.3 30.7847H157.641V32.1887H182.3V30.7847Z" fill="url(#paint18_linear_94_232)"/>
<path opacity="0.3" d="M129.719 8.78821H117.493V10.1922H129.719V8.78821Z" fill="url(#paint19_linear_94_232)"/>
<path d="M137.179 8.78821H131.221V10.1922H137.179V8.78821Z" fill="url(#paint20_linear_94_232)"/>
<path d="M114.54 8.78821H112.882V10.1922H114.54V8.78821Z" fill="url(#paint21_linear_94_232)"/>
<path d="M158.367 8.78821H139.872V10.1922H158.367V8.78821Z" fill="url(#paint22_linear_94_232)"/>
<path opacity="0.5" d="M182.3 8.78821H160.387V10.1922H182.3V8.78821Z" fill="url(#paint23_linear_94_232)"/>
<path d="M149.974 13.2083H117.493V14.6123H149.974V13.2083Z" fill="url(#paint24_linear_94_232)"/>
<path d="M114.54 13.2083H112.882V14.6123H114.54V13.2083Z" fill="url(#paint25_linear_94_232)"/>
<path d="M175.617 13.2083H151.632V14.6123H175.617V13.2083Z" fill="url(#paint26_linear_94_232)"/>
<path opacity="0.5" d="M134.174 17.5764H117.493V18.9804H134.174V17.5764Z" fill="url(#paint27_linear_94_232)"/>
<path d="M114.54 17.5764H112.882V18.9804H114.54V17.5764Z" fill="url(#paint28_linear_94_232)"/>
<path opacity="0.5" d="M175.617 17.5764H143.861V18.9804H175.617V17.5764Z" fill="url(#paint29_linear_94_232)"/>
<path d="M182.3 17.5764H178V18.9804H182.3V17.5764Z" fill="url(#paint30_linear_94_232)"/>
<path d="M140.649 17.5764H136.35V18.9804H140.649V17.5764Z" fill="url(#paint31_linear_94_232)"/>
<path d="M125.885 21.9965H117.493V23.4005H125.885V21.9965Z" fill="url(#paint32_linear_94_232)"/>
<path d="M142.773 21.9965H134.381V23.4005H142.773V21.9965Z" fill="url(#paint33_linear_94_232)"/>
<path d="M114.54 21.9965H112.882V23.4005H114.54V21.9965Z" fill="url(#paint34_linear_94_232)"/>
<path opacity="0.3" d="M167.588 21.9965H145.882V23.4005H167.588V21.9965Z" fill="url(#paint35_linear_94_232)"/>
<path opacity="0.5" d="M182.248 21.9965H170.437V23.4005H182.248V21.9965Z" fill="url(#paint36_linear_94_232)"/>
<path opacity="0.5" d="M132.412 21.9965H128.113V23.4005H132.412V21.9965Z" fill="url(#paint37_linear_94_232)"/>
<path d="M102.314 185.904C132.985 185.904 157.849 183.203 157.849 179.872C157.849 176.54 132.985 173.84 102.314 173.84C71.6432 173.84 46.7795 176.54 46.7795 179.872C46.7795 183.203 71.6432 185.904 102.314 185.904Z" fill="url(#paint38_linear_94_232)"/>
<path d="M170.23 191C180.844 191 189.449 190.069 189.449 188.92C189.449 187.771 180.844 186.84 170.23 186.84C159.615 186.84 151.01 187.771 151.01 188.92C151.01 190.069 159.615 191 170.23 191Z" fill="url(#paint39_linear_94_232)"/>
<path d="M22.4314 191C34.8199 191 44.8628 190.069 44.8628 188.92C44.8628 187.771 34.8199 186.84 22.4314 186.84C10.0429 186.84 0 187.771 0 188.92C0 190.069 10.0429 191 22.4314 191Z" fill="url(#paint40_linear_94_232)"/>
<path d="M140.805 179.04H64.7039C61.0258 179.04 58.0211 176.024 58.0211 172.332V27.0925C58.0211 23.4005 61.0258 20.3844 64.7039 20.3844H140.805C144.483 20.3844 147.488 23.4005 147.488 27.0925V172.332C147.488 176.024 144.483 179.04 140.805 179.04Z" fill="url(#paint41_linear_94_232)"/>
<path d="M143.24 27.7686H62.3209V166.299H143.24V27.7686Z" fill="url(#paint42_linear_94_232)"/>
<path d="M141.219 29.5366H64.3412V164.583H141.219V29.5366Z" fill="url(#paint43_linear_94_232)"/>
<path d="M104.645 175.088H100.864C100.397 175.088 100.035 174.724 100.035 174.256V170.46C100.035 169.992 100.397 169.628 100.864 169.628H104.645C105.112 169.628 105.474 169.992 105.474 170.46V174.256C105.474 174.724 105.112 175.088 104.645 175.088ZM100.967 174.204H104.542V170.616H100.967V174.204Z" fill="url(#paint44_linear_94_232)"/>
<path opacity="0.5" d="M97.1854 137.595H69.1073C68.4856 137.595 68.0194 137.127 68.0194 136.503V108.318C68.0194 107.694 68.4856 107.226 69.1073 107.226H97.1854C97.807 107.226 98.2733 107.694 98.2733 108.318V136.503C98.2733 137.075 97.807 137.595 97.1854 137.595Z" fill="url(#paint45_linear_94_232)"/>
<path d="M136.401 137.595H108.323C107.702 137.595 107.235 137.127 107.235 136.503V108.318C107.235 107.694 107.702 107.226 108.323 107.226H136.401C137.023 107.226 137.489 107.694 137.489 108.318V136.503C137.489 137.075 137.023 137.595 136.401 137.595Z" fill="url(#paint46_linear_94_232)"/>
<path d="M131.532 131.251H113.193V132.343H131.532V131.251Z" fill="url(#paint47_linear_94_232)"/>
<path d="M32.4815 83.8258H95.9939C96.8746 83.8258 97.5998 83.0978 97.5998 82.2138V40.9769C97.5998 40.0929 96.8746 39.3649 95.9939 39.3649H32.4815C31.6008 39.3649 30.8755 40.0929 30.8755 40.9769V82.2138C30.8755 83.0978 31.6008 83.8258 32.4815 83.8258Z" fill="url(#paint48_linear_94_232)"/>
<path d="M30.9791 45.813H97.7034V40.7689C97.7034 39.8849 96.9781 39.1569 96.0975 39.1569H32.5851C31.7044 39.1569 30.9791 39.8849 30.9791 40.7689V45.813Z" fill="url(#paint49_linear_94_232)"/>
<path d="M45.1736 43.4209C45.6886 43.4209 46.1061 43.0019 46.1061 42.4849C46.1061 41.968 45.6886 41.5489 45.1736 41.5489C44.6586 41.5489 44.2411 41.968 44.2411 42.4849C44.2411 43.0019 44.6586 43.4209 45.1736 43.4209Z" fill="white"/>
<path d="M40.6148 43.4209C41.1298 43.4209 41.5473 43.0019 41.5473 42.4849C41.5473 41.968 41.1298 41.5489 40.6148 41.5489C40.0998 41.5489 39.6823 41.968 39.6823 42.4849C39.6823 43.0019 40.0998 43.4209 40.6148 43.4209Z" fill="white"/>
<path d="M36.0042 43.4209C36.5192 43.4209 36.9367 43.0019 36.9367 42.4849C36.9367 41.968 36.5192 41.5489 36.0042 41.5489C35.4892 41.5489 35.0717 41.968 35.0717 42.4849C35.0717 43.0019 35.4892 43.4209 36.0042 43.4209Z" fill="white"/>
<g opacity="0.5">
<path opacity="0.5" d="M55.7417 50.5971H39.6823V51.7411H55.7417V50.5971Z" fill="url(#paint50_linear_94_232)"/>
</g>
<path opacity="0.5" d="M62.5799 50.5971H57.6067V51.7411H62.5799V50.5971Z" fill="white"/>
<path d="M37.2993 50.5971H35.9524V51.7411H37.2993V50.5971Z" fill="url(#paint51_linear_94_232)"/>
<g opacity="0.8">
<path opacity="0.8" d="M84.6487 50.5971H77.8623V51.7411H84.6487V50.5971Z" fill="url(#paint52_linear_94_232)"/>
</g>
<g opacity="0.5">
<path opacity="0.5" d="M76.4118 50.5971H64.963V51.7411H76.4118V50.5971Z" fill="url(#paint53_linear_94_232)"/>
</g>
<path d="M58.591 72.1255H57.6067H39.6823V73.2696H57.6067H58.591H62.5799V72.1255H58.591Z" fill="url(#paint54_linear_94_232)"/>
<path d="M37.2993 72.1255H35.9524V73.2696H37.2993V72.1255Z" fill="url(#paint55_linear_94_232)"/>
<g opacity="0.5">
<path opacity="0.5" d="M81.5922 72.1255H77.8623V73.2696H81.5922V72.1255Z" fill="url(#paint56_linear_94_232)"/>
</g>
<path opacity="0.5" d="M76.4118 72.1255H64.963V73.2696H76.4118V72.1255Z" fill="white"/>
<path d="M42.946 54.1852H39.6823V55.3292H42.946V54.1852Z" fill="url(#paint57_linear_94_232)"/>
<path opacity="0.5" d="M62.8908 54.1852H44.3965V55.3292H62.8908V54.1852Z" fill="url(#paint58_linear_94_232)"/>
<path d="M37.2993 54.1852H35.9524V55.3292H37.2993V54.1852Z" fill="url(#paint59_linear_94_232)"/>
<g opacity="0.5">
<path opacity="0.5" d="M92.523 54.1852H64.963V55.3292H92.523V54.1852Z" fill="url(#paint60_linear_94_232)"/>
</g>
<path d="M42.946 75.7136H39.6823V76.8576H42.946V75.7136Z" fill="url(#paint61_linear_94_232)"/>
<path d="M69.5217 75.7136H66.2581V76.8576H69.5217V75.7136Z" fill="url(#paint62_linear_94_232)"/>
<path opacity="0.5" d="M62.8908 75.7136H44.3965V76.8576H62.8908V75.7136Z" fill="url(#paint63_linear_94_232)"/>
<path d="M37.2993 75.7136H35.9524V76.8576H37.2993V75.7136Z" fill="url(#paint64_linear_94_232)"/>
<path d="M92.523 75.7136H72.4228V76.8576H92.523V75.7136Z" fill="url(#paint65_linear_94_232)"/>
<g opacity="0.3">
<path opacity="0.3" d="M49.6806 57.7733H39.6823V58.9173H49.6806V57.7733Z" fill="url(#paint66_linear_94_232)"/>
</g>
<path d="M55.7418 57.7733H50.8721V58.9173H55.7418V57.7733Z" fill="url(#paint67_linear_94_232)"/>
<path d="M37.2993 57.7733H35.9524V58.9173H37.2993V57.7733Z" fill="url(#paint68_linear_94_232)"/>
<path d="M73.0445 57.7733H57.9694V58.9173H73.0445V57.7733Z" fill="url(#paint69_linear_94_232)"/>
<path opacity="0.5" d="M92.523 57.7733H74.6504V58.9173H92.523V57.7733Z" fill="white"/>
<path d="M66.1544 61.3613H39.6823V62.5054H66.1544V61.3613Z" fill="url(#paint70_linear_94_232)"/>
<path d="M37.2993 61.3613H35.9524V62.5054H37.2993V61.3613Z" fill="url(#paint71_linear_94_232)"/>
<path d="M87.0835 61.3613H67.5532V62.5054H87.0835V61.3613Z" fill="url(#paint72_linear_94_232)"/>
<path opacity="0.5" d="M53.2551 64.9494H39.6823V66.0934H53.2551V64.9494Z" fill="white"/>
<path d="M37.2993 64.9494H35.9524V66.0934H37.2993V64.9494Z" fill="url(#paint73_linear_94_232)"/>
<g opacity="0.5">
<path opacity="0.5" d="M87.0835 64.9494H61.1812V66.0934H87.0835V64.9494Z" fill="url(#paint74_linear_94_232)"/>
</g>
<path d="M92.523 64.9494H89.0521V66.0934H92.523V64.9494Z" fill="url(#paint75_linear_94_232)"/>
<path d="M58.5392 64.9494H55.0683V66.0934H58.5392V64.9494Z" fill="url(#paint76_linear_94_232)"/>
<path d="M46.5205 68.5375H39.6823V69.6815H46.5205V68.5375Z" fill="url(#paint77_linear_94_232)"/>
<path d="M60.3005 68.5375H53.4623V69.6815H60.3005V68.5375Z" fill="url(#paint78_linear_94_232)"/>
<path d="M37.2993 68.5375H35.9524V69.6815H37.2993V68.5375Z" fill="url(#paint79_linear_94_232)"/>
<g opacity="0.3">
<path opacity="0.3" d="M80.5561 68.5375H62.839V69.6815H80.5561V68.5375Z" fill="url(#paint80_linear_94_232)"/>
</g>
<path opacity="0.5" d="M92.523 68.5375H82.8873V69.6815H92.523V68.5375Z" fill="url(#paint81_linear_94_232)"/>
<g opacity="0.5">
<path opacity="0.5" d="M51.8046 68.5375H48.3337V69.6815H51.8046V68.5375Z" fill="url(#paint82_linear_94_232)"/>
</g>
<path d="M107.391 80.3937H162.666C163.443 80.3937 164.065 79.7696 164.065 78.9896V43.1089C164.065 42.3288 163.443 41.7048 162.666 41.7048H107.391C106.614 41.7048 105.992 42.3288 105.992 43.1089V78.9896C105.992 79.7696 106.614 80.3937 107.391 80.3937Z" fill="white"/>
<path d="M105.992 47.477H164.065V43.1089C164.065 42.3288 163.443 41.7048 162.666 41.7048H107.391C106.614 41.7048 105.992 42.3288 105.992 43.1089V47.477V47.477Z" fill="url(#paint83_linear_94_232)"/>
<path d="M118.373 45.3969C118.831 45.3969 119.202 45.0244 119.202 44.5649C119.202 44.1054 118.831 43.7329 118.373 43.7329C117.916 43.7329 117.545 44.1054 117.545 44.5649C117.545 45.0244 117.916 45.3969 118.373 45.3969Z" fill="white"/>
<path d="M114.384 45.3969C114.842 45.3969 115.213 45.0244 115.213 44.5649C115.213 44.1054 114.842 43.7329 114.384 43.7329C113.927 43.7329 113.556 44.1054 113.556 44.5649C113.556 45.0244 113.927 45.3969 114.384 45.3969Z" fill="white"/>
<path d="M110.396 45.3969C110.853 45.3969 111.224 45.0244 111.224 44.5649C111.224 44.1054 110.853 43.7329 110.396 43.7329C109.938 43.7329 109.567 44.1054 109.567 44.5649C109.567 45.0244 109.938 45.3969 110.396 45.3969Z" fill="white"/>
<path d="M140.772 72.9451C142.422 71.8558 141.183 67.0439 138.006 62.1975C134.829 57.3511 130.917 54.3053 129.268 55.3946C127.618 56.4839 128.857 61.2958 132.034 66.1422C135.211 70.9887 139.123 74.0344 140.772 72.9451Z" stroke="url(#paint84_linear_94_232)" stroke-width="1.3666" stroke-miterlimit="10"/>
<path d="M138.018 66.1456C141.195 61.2992 142.433 56.4873 140.784 55.398C139.135 54.3087 135.222 57.3544 132.045 62.2008C128.868 67.0473 127.63 71.8591 129.279 72.9484C130.928 74.0377 134.841 70.992 138.018 66.1456Z" stroke="url(#paint85_linear_94_232)" stroke-width="1.3666" stroke-miterlimit="10"/>
<path d="M135.003 67.7574C140.782 67.7574 145.467 66.151 145.467 64.1693C145.467 62.1877 140.782 60.5812 135.003 60.5812C129.223 60.5812 124.538 62.1877 124.538 64.1693C124.538 66.151 129.223 67.7574 135.003 67.7574Z" stroke="url(#paint86_linear_94_232)" stroke-width="1.3666" stroke-miterlimit="10"/>
<path d="M134.744 65.8333C135.659 65.8333 136.401 65.0883 136.401 64.1693C136.401 63.2503 135.659 62.5052 134.744 62.5052C133.828 62.5052 133.086 63.2503 133.086 64.1693C133.086 65.0883 133.828 65.8333 134.744 65.8333Z" fill="url(#paint87_linear_94_232)"/>
<path d="M28.8033 88.0378H16.6293V98.9581H28.8033V88.0378Z" fill="url(#paint88_linear_94_232)"/>
<path d="M20.8254 95.734L18.5978 94.174V93.2379L20.8254 91.6779V92.7179L19.4267 93.706L20.8254 94.694V95.734Z" fill="white"/>
<path d="M21.5507 96.462L23.3121 90.5859H23.9337L22.1724 96.462H21.5507Z" fill="white"/>
<path d="M24.6589 95.734V94.694L26.0577 93.706L24.6589 92.7179V91.6779L26.8865 93.2379V94.174L24.6589 95.734Z" fill="white"/>
<path d="M43.8785 17.4724H31.7044V28.3926H43.8785V17.4724Z" fill="url(#paint89_linear_94_232)"/>
<path d="M35.8487 25.1685L33.6212 23.6085V22.6725L35.8487 21.1124V22.1524L34.45 23.1405L35.8487 24.1285V25.1685Z" fill="white"/>
<path d="M36.574 25.8965L38.3353 20.0204H38.957L37.1956 25.8965H36.574Z" fill="white"/>
<path d="M39.7341 25.1685V24.1285L41.1328 23.1405L39.7341 22.1524V21.1124L41.9617 22.6725V23.6085L39.7341 25.1685Z" fill="white"/>
<path d="M192.195 58.0332H180.021V68.9534H192.195V58.0332Z" fill="url(#paint90_linear_94_232)"/>
<path d="M184.217 65.7294L181.989 64.1693V63.2333L184.217 61.6733V62.7133L182.818 63.7013L184.217 64.6893V65.7294Z" fill="white"/>
<path d="M184.942 66.4054L186.704 60.5292H187.325L185.564 66.4054H184.942Z" fill="white"/>
<path d="M188.051 65.7294V64.6893L189.449 63.7013L188.051 62.7133V61.6733L190.278 63.2333V64.1693L188.051 65.7294Z" fill="white"/>
<path d="M169.712 108.682C172.147 110.814 166.293 126.519 164.324 125.323C160.698 125.115 165.101 106.082 169.712 108.682Z" fill="#CE9789"/>
<path d="M163.495 117.47L162.356 123.555L159.04 124.699L159.247 127.767C159.247 127.767 164.583 127.767 165.93 125.947C167.277 124.127 168.417 118.77 168.417 118.77L163.495 117.47Z" fill="#ECA592"/>
<path d="M173.131 106.602C164.739 106.186 164.48 112.946 163.184 117.522L168.624 119.083L173.131 106.602Z" fill="url(#paint91_linear_94_232)"/>
<path d="M165.619 125.531C165.619 125.999 165.308 126.415 164.842 126.675C161.527 128.443 153.601 127.871 153.756 126.727C153.911 125.947 165.826 121.943 165.619 125.531Z" fill="#CE9789"/>
<path d="M155.155 126.103L155.31 125.999L154.947 125.791L154.274 125.427C154.119 125.323 153.911 125.271 153.704 125.323L152.875 125.531C152.875 125.531 152.72 125.739 153.238 125.739C153.342 125.739 153.549 125.843 153.704 125.947L153.238 125.999L152.046 126.259C151.736 126.311 151.425 126.623 151.477 126.987C151.477 126.987 151.58 127.507 152.15 127.611L152.927 127.819C153.342 127.871 153.652 127.975 154.067 127.871L155.155 127.455V126.103Z" fill="#CE9789"/>
<path d="M170.644 129.691C175.41 129.899 173.027 134.319 172.095 138.219C170.385 144.355 171.266 152.311 168.779 153.195C162.2 155.119 164.48 131.667 166.345 130.627C167.225 130.107 169.038 129.847 170.644 129.691Z" fill="#CE9789"/>
<path d="M166.137 151.115C170.8 147.839 170.23 175.244 168.935 181.484C167.64 187.724 166.396 178.26 165.567 168.275C164.739 158.291 164.324 152.363 166.137 151.115Z" fill="#CE9789"/>
<path d="M169.712 180.392L169.608 183.148L166.189 183.2V180.704L169.712 180.392Z" fill="#CE9789"/>
<path d="M165.878 183.2C165.878 183.2 165.153 184.604 162.77 186.424C160.387 188.244 159.765 187.88 159.714 188.556C159.662 189.232 169.919 188.66 169.919 188.66L169.712 183.044C169.712 183.044 165.878 183.096 165.878 183.2Z" fill="url(#paint92_linear_94_232)"/>
<path d="M175.721 129.795C180.384 128.859 180.332 133.903 180.332 137.907C180.125 144.251 181.575 151.635 179.347 153.039C173.39 156.471 171.68 132.343 173.235 130.887C173.96 130.263 174.219 130.315 175.721 129.795Z" fill="#CE9789"/>
<path d="M176.913 151.115C179.296 149.451 181.316 173.632 179.71 181.484C178.415 187.724 177.172 178.26 176.343 168.276C175.462 158.291 175.048 152.363 176.913 151.115Z" fill="#CE9789"/>
<path d="M180.28 181.536V183.824L176.602 183.876L176.654 181.848L180.28 181.536Z" fill="#CE9789"/>
<path d="M180.332 183.772C180.384 184.656 181.316 187.776 181.316 188.556C175.514 188.712 175.669 189.856 176.602 183.824L180.332 183.772Z" fill="url(#paint93_linear_94_232)"/>
<path d="M164.842 131.563C164.842 131.563 163.184 150.855 163.288 153.715C163.392 156.575 166.085 181.016 166.085 181.016L169.815 180.86C169.815 180.86 171.318 167.079 170.126 153.871L172.302 141.599L176.446 181.848H180.384C180.384 181.848 180.539 157.199 180.798 153.299C181.057 149.399 180.125 130.991 180.125 130.991L164.842 131.563Z" fill="url(#paint94_linear_94_232)"/>
<path d="M164.842 131.563C164.79 132.499 172.406 132.499 176.913 131.927C178.829 131.719 180.176 131.355 180.176 130.991C179.71 123.971 180.487 118.822 181.005 115.078C181.834 109.15 182.093 106.654 175.928 105.874L171.214 106.342C161.63 108.058 166.5 117.366 164.842 131.563Z" fill="url(#paint95_linear_94_232)"/>
<path d="M154.421 126.751L169.134 126.605L169.127 125.877L154.414 126.023L154.421 126.751Z" fill="#1B3689"/>
<path d="M150.544 126.779L164.272 126.675L160.283 117.314L146.607 117.47L150.544 126.779Z" fill="#1B3689"/>
<path d="M150.181 126.779L163.858 126.675L159.921 117.314L146.193 117.47L150.181 126.779Z" fill="url(#paint96_linear_94_232)"/>
<path d="M155.137 123.317C155.534 123.152 155.652 122.524 155.401 121.913C155.15 121.303 154.624 120.941 154.228 121.105C153.831 121.27 153.713 121.898 153.964 122.508C154.215 123.119 154.74 123.481 155.137 123.317Z" fill="white"/>
<path d="M176.913 131.927C178.829 131.719 180.176 131.355 180.176 130.991C179.71 123.971 180.487 118.823 181.005 115.078L178.57 114.818C178.57 114.818 179.503 120.331 179.347 124.699C179.244 128.859 179.037 131.199 176.913 131.927Z" fill="#E8E4D8"/>
<path d="M171.214 105.042V105.822V107.694C171.421 110.138 175.255 107.486 175.669 106.446C175.98 105.77 175.514 105.458 175.514 104.106C175.514 102.754 175.514 102.598 175.514 102.598C180.073 95.266 172.457 92.3019 169.505 97.502C169.505 99.2181 169.349 100.83 169.297 102.182C169.297 104.21 169.556 105.458 171.214 105.042Z" fill="#ECA592"/>
<path d="M168.52 95.994C168.468 96.774 168.779 97.502 169.505 97.918C170.178 98.3341 170.955 98.23 171.68 97.97C172.406 97.658 173.183 97.242 173.96 97.658C175.048 98.178 174.219 99.8941 174.219 100.726C174.426 100.83 174.633 100.934 174.84 100.986C174.944 100.362 175.151 99.7901 175.566 99.7901C176.136 99.7901 175.566 102.546 175.669 102.598C175.721 102.598 176.395 101.61 176.861 100.414C176.964 100.154 177.016 99.8941 177.068 99.6341C177.482 97.918 177.327 95.266 175.307 94.694C174.426 94.434 173.597 94.278 172.768 93.862C171.991 93.4979 171.162 93.0819 170.282 93.3939C169.246 93.862 168.572 94.954 168.52 95.994Z" fill="url(#paint97_linear_94_232)"/>
<path d="M180.125 108.162C182.715 109.982 178.674 126.571 176.654 125.635C173.079 125.791 175.41 106.082 180.125 108.162Z" fill="#CE9789"/>
<path d="M174.944 118.615L174.322 122.203L168.624 120.955L167.743 123.763C167.743 123.763 175.618 127.611 177.275 125.999C178.933 124.387 180.021 119.291 180.021 119.291L174.944 118.615Z" fill="#ECA592"/>
<path d="M176.343 109.826L174.633 118.718L180.332 119.706C180.332 119.706 181.886 111.594 181.679 109.566C181.627 109.15 181.42 108.734 181.161 108.318C181.161 108.318 181.161 108.266 181.109 108.266C179.814 106.238 176.861 107.486 176.343 109.826Z" fill="url(#paint98_linear_94_232)"/>
<path d="M177.327 125.583C177.12 125.999 176.654 126.259 176.187 126.259C172.561 126.467 160.024 120.435 160.801 119.706C161.164 119.03 178.933 122.463 177.327 125.583Z" fill="#ECA592"/>
<path d="M162.977 119.863L163.184 119.811L162.925 119.447L162.459 118.875C162.356 118.718 162.2 118.614 161.993 118.51L161.164 118.354C161.164 118.354 160.957 118.51 161.371 118.718C161.475 118.77 161.578 118.927 161.682 119.083L161.216 118.926L160.18 118.666C159.869 118.614 159.558 119.967 160.024 120.279L160.283 120.487C160.646 120.695 160.853 120.903 161.268 120.955L162.407 121.007L162.977 119.863Z" fill="#ECA592"/>
<path d="M171.214 105.042V105.822C171.784 105.25 172.768 104.262 172.768 104.262C172.147 104.782 171.214 105.042 171.214 105.042Z" fill="#D7CFBB"/>
<path d="M171.214 105.042C171.888 104.834 172.457 104.574 172.768 104.262C173.649 103.482 174.789 100.986 174.789 100.986L174.167 100.726C174.167 100.726 173.545 102.494 172.302 102.494C171.162 102.442 170.023 101.818 169.349 102.182C169.297 104.21 169.556 105.458 171.214 105.042Z" fill="url(#paint99_linear_94_232)"/>
<path d="M171.111 103.378C171.111 103.378 170.592 102.962 169.971 103.014C169.815 103.014 169.505 103.274 169.453 103.43C169.505 103.482 170.489 104.106 171.111 103.378Z" fill="#CE9789"/>
<path d="M34.3464 157.563C29.8912 154.235 29.8912 175.868 30.9791 181.952C32.067 188.036 33.4139 183.928 34.45 174.256C35.5379 164.583 36.1078 158.863 34.3464 157.563Z" fill="#CE9789"/>
<path d="M30.3057 181.328L30.1503 183.564L33.8284 183.772L33.7766 181.588L30.3057 181.328Z" fill="#CE9789"/>
<path d="M33.8802 183.72C33.8802 183.72 34.5536 185.124 36.833 186.944C39.1124 188.764 39.7341 188.4 39.7859 189.076C39.8377 189.752 29.6322 188.868 29.6322 188.868L30.0984 183.46C30.0984 183.46 33.8802 183.616 33.8802 183.72Z" fill="url(#paint100_linear_94_232)"/>
<path d="M22.2759 134.943C17.7171 134.163 17.9243 139.103 18.028 143.003C18.4424 149.191 17.2509 156.367 19.4267 157.667C25.3324 160.839 26.2131 137.335 24.7107 135.983C23.9855 135.359 23.7783 135.411 22.2759 134.943Z" fill="#CE9789"/>
<path d="M28.1816 136.763C23.6228 137.491 25.3324 142.067 26.7311 145.759C29.0623 151.479 30.2538 158.707 32.7404 159.227C39.3196 160.319 32.7404 137.751 30.8755 136.971C29.943 136.607 29.7358 136.711 28.1816 136.763Z" fill="#CE9789"/>
<path d="M21.8097 156.731C19.1159 151.895 10.3091 171.604 8.80676 177.584C7.30443 183.616 10.2055 180.392 15.1269 172.02C20.0484 163.647 22.8458 158.655 21.8097 156.731Z" fill="#CE9789"/>
<path d="M8.28873 177.48L7.30444 179.456L10.5163 181.016L11.397 179.04L8.28873 177.48Z" fill="#CE9789"/>
<path d="M10.8271 180.964C10.8271 180.964 10.8789 182.472 12.2259 185.124C13.5728 187.724 14.298 187.672 14.039 188.296C13.78 188.92 4.81781 183.98 4.81781 183.98L7.45984 179.196C7.40804 179.196 10.8789 180.86 10.8271 180.964Z" fill="url(#paint101_linear_94_232)"/>
<path d="M32.7405 137.335C32.7405 137.335 36.7812 152.987 37.1439 156.783C37.4547 160.579 34.3464 182.056 34.3464 182.056L29.5286 181.796C29.5286 181.796 29.684 163.855 30.3575 158.863L25.9541 145.967C25.9541 145.967 23.8819 157.147 23.1566 159.331C22.2242 162.139 11.656 179.664 11.656 179.664L7.71887 177.584C7.71887 177.584 11.3452 165.259 17.1991 156.627C17.1991 156.627 15.645 137.127 18.3388 134.995C21.0845 132.863 32.7405 137.335 32.7405 137.335Z" fill="url(#paint102_linear_94_232)"/>
<path d="M30.0466 114.506C28.0263 116.794 35.4861 131.615 37.1439 130.315C40.563 129.587 34.0874 111.49 30.0466 114.506Z" fill="#CE9789"/>
<path d="M36.5222 121.215L38.2836 125.739C38.2836 125.739 43.464 123.555 44.6037 123.139C45.7434 122.723 50.9239 120.851 50.9239 120.851L51.8564 122.879C51.8564 122.879 46.3133 126.571 44.5519 127.559C42.7906 128.547 38.18 131.199 36.2632 130.367C34.3464 129.587 31.8598 123.191 31.8598 123.191L36.5222 121.215Z" fill="#CE9789"/>
<path d="M35.9006 129.743C36.2114 130.211 36.7812 130.419 37.2993 130.367C41.5991 130.055 55.3791 121.007 54.343 120.279C53.8768 119.55 33.5176 126.363 35.9006 129.743Z" fill="#CE9789"/>
<path d="M56.2597 118.77V118.822L56.2079 119.81C56.2597 119.966 56.0525 120.434 55.9489 120.59L55.4827 121.162C55.0164 121.683 54.3948 122.099 53.7731 122.359L52.1672 122.775L51.8045 122.879L51.5973 122.463L50.9757 121.162L50.8203 120.85L50.8721 120.694L51.2865 119.654C51.4419 119.342 51.5973 119.082 51.8563 118.874L53.1515 118.25C53.1515 118.25 53.2033 118.562 52.8924 118.926C52.737 119.082 52.6334 119.394 52.5816 119.654L53.2551 119.238L55.0164 118.302C55.5863 118.094 56.1043 118.302 56.2597 118.77Z" fill="#CE9789"/>
<path d="M31.7044 123.503C30.8755 121.735 28.0781 114.974 30.3575 113.882C33.1031 112.53 34.7091 116.69 35.0717 117.366C35.4343 118.042 36.6777 121.215 36.6777 121.215L31.7044 123.503Z" fill="url(#paint103_linear_94_232)"/>
<path d="M18.0279 134.891C17.8725 136.139 32.6886 138.635 32.7404 137.335C32.7922 132.447 33.5175 128.235 34.0874 124.699C34.191 124.127 34.2428 123.555 34.3464 122.983C35.1235 117.47 34.968 113.882 29.6322 112.218L25.177 111.178C19.4785 111.178 19.064 113.362 19.1158 118.458C19.1158 120.123 19.2195 122.151 19.1158 124.491C19.064 127.403 18.805 130.887 18.0279 134.891Z" fill="url(#paint104_linear_94_232)"/>
<path d="M67.6049 131.355L39.8377 135.463C39.216 135.567 38.698 135.151 38.5944 134.527L34.5018 106.654C34.3982 106.03 34.8127 105.51 35.4343 105.406L63.2016 101.298C63.8232 101.194 64.3413 101.61 64.4449 102.234L68.5374 130.107C68.5892 130.731 68.1748 131.303 67.6049 131.355Z" fill="url(#paint105_linear_94_232)"/>
<path d="M62.01 126.883L43.8784 129.587L43.723 128.443L61.8546 125.791L62.01 126.883Z" fill="url(#paint106_linear_94_232)"/>
<path d="M25.695 109.566C25.4878 110.866 25.0216 111.126 25.2806 111.802C25.5914 112.842 28.9587 115.858 29.4768 113.518L29.5286 113.31L29.8394 110.97C32.4296 112.01 31.8598 108.006 32.326 103.95C30.1502 98.5941 22.3795 100.518 25.9022 108.11C25.9022 108.11 25.9022 108.266 25.695 109.566Z" fill="#ECA592"/>
<path d="M28.6479 110.398C28.6997 110.502 29.425 111.802 29.4768 113.31L29.7876 110.97L28.6479 110.398Z" fill="url(#paint107_linear_94_232)"/>
<path d="M25.9023 108.11C26.0059 108.11 25.7468 105.354 26.3167 105.406C26.7311 105.458 26.8347 106.082 26.8347 106.758L27.4564 106.602C27.3528 105.406 27.5082 103.95 27.8708 103.638C28.5443 103.066 30.0984 104.054 31.7562 104.47C32.7923 104.73 33.2585 103.534 33.4139 102.65C33.5175 102.026 33.2585 101.35 32.7405 100.986C31.4972 100.206 29.9948 100.622 28.1817 100.466C25.9023 100.31 25.436 101.662 24.9698 103.586C24.5553 105.51 25.7987 108.162 25.9023 108.11Z" fill="url(#paint108_linear_94_232)"/>
<path d="M19.7894 114.194C19.0123 117.158 32.4297 126.883 33.3104 124.959C36.0042 122.775 21.9652 109.67 19.7894 114.194Z" fill="#CE9789"/>
<path d="M28.6479 117.002L32.8959 120.85C32.8959 120.85 39.1643 118.198 40.6148 117.522C42.0653 116.846 46.4687 115.442 46.4687 115.442L47.4012 117.47C47.4012 117.47 36.2632 125.271 32.8441 125.323C30.2539 125.375 25.3325 121.111 25.3325 121.111L28.6479 117.002Z" fill="#ECA592"/>
<path d="M31.4454 124.283C31.7562 124.751 32.3261 124.959 32.8441 124.907C37.1439 124.595 50.9239 115.546 49.8878 114.818C49.4216 114.09 29.0624 120.903 31.4454 124.283Z" fill="#ECA592"/>
<path d="M51.8564 113.31V113.362L51.8045 114.35C51.8564 114.506 51.6491 114.974 51.5455 115.13L51.0793 115.702C50.613 116.222 49.9914 116.638 49.3697 116.898L47.7638 117.314L47.4012 117.418L47.1939 117.002L46.5723 115.702L46.4169 115.39L46.4687 115.234L46.8831 114.194C47.0385 113.882 47.1939 113.622 47.453 113.414L48.7481 112.79C48.7481 112.79 48.7999 113.102 48.4891 113.466C48.3336 113.622 48.23 113.934 48.1782 114.194L48.8517 113.778L50.613 112.842C51.1311 112.634 51.6491 112.842 51.8564 113.31Z" fill="#ECA592"/>
<path d="M25.2806 121.527C23.7783 120.331 18.287 115.442 19.7894 113.414C21.6025 110.97 24.9698 113.934 25.5915 114.35C26.2131 114.766 28.8033 117.054 28.8033 117.054L25.2806 121.527Z" fill="url(#paint109_linear_94_232)"/>
<path opacity="0.5" d="M137.127 100.154H68.382C68.1748 100.154 68.0712 99.9981 68.0712 99.8421V89.1819C68.0712 88.9739 68.2266 88.8699 68.382 88.8699H137.127C137.334 88.8699 137.437 89.0259 137.437 89.1819V99.8421C137.489 99.9981 137.334 100.154 137.127 100.154Z" fill="url(#paint110_linear_94_232)"/>
<path opacity="0.5" d="M138.37 162.867H67.1387C66.8797 162.867 66.7243 162.659 66.7243 162.451V145.447C66.7243 145.187 66.9315 145.031 67.1387 145.031H138.37C138.629 145.031 138.784 145.239 138.784 145.447V162.451C138.836 162.659 138.629 162.867 138.37 162.867Z" fill="url(#paint111_linear_94_232)"/>
<g opacity="0.5">
<path opacity="0.5" d="M80.2971 149.607H72.4746V157.459H80.2971V149.607Z" fill="url(#paint112_linear_94_232)"/>
<path opacity="0.5" d="M97.3926 149.607H89.5701V157.459H97.3926V149.607Z" fill="url(#paint113_linear_94_232)"/>
<path opacity="0.5" d="M114.488 149.607H106.666V157.459H114.488V149.607Z" fill="url(#paint114_linear_94_232)"/>
<path opacity="0.5" d="M131.532 149.607H123.709V157.459H131.532V149.607Z" fill="url(#paint115_linear_94_232)"/>
</g>
<g opacity="0.5">
<path opacity="0.5" d="M132.775 160.267H71.4385V160.683H132.775V160.267Z" fill="url(#paint116_linear_94_232)"/>
</g>
<defs>
<linearGradient id="paint0_linear_94_232" x1="8.11521" y1="78.1805" x2="211.017" y2="78.1805" gradientUnits="userSpaceOnUse">
<stop stop-color="#E2F4FF"/>
<stop offset="1" stop-color="#D7ECFF"/>
</linearGradient>
<linearGradient id="paint1_linear_94_232" x1="127.321" y1="-0.726715" x2="127.321" y2="32.1547" gradientUnits="userSpaceOnUse">
<stop stop-color="#E2F4FF"/>
<stop offset="1" stop-color="#D7ECFF"/>
</linearGradient>
<linearGradient id="paint2_linear_94_232" x1="142.522" y1="-0.726715" x2="142.522" y2="32.1547" gradientUnits="userSpaceOnUse">
<stop stop-color="#E2F4FF"/>
<stop offset="1" stop-color="#D7ECFF"/>
</linearGradient>
<linearGradient id="paint3_linear_94_232" x1="113.739" y1="-0.726715" x2="113.739" y2="32.1547" gradientUnits="userSpaceOnUse">
<stop stop-color="#E2F4FF"/>
<stop offset="1" stop-color="#D7ECFF"/>
</linearGradient>
<linearGradient id="paint4_linear_94_232" x1="168.494" y1="-0.726715" x2="168.494" y2="32.1547" gradientUnits="userSpaceOnUse">
<stop stop-color="#E2F4FF"/>
<stop offset="1" stop-color="#D7ECFF"/>
</linearGradient>
<linearGradient id="paint5_linear_94_232" x1="155.507" y1="-0.726715" x2="155.507" y2="32.1547" gradientUnits="userSpaceOnUse">
<stop stop-color="#E2F4FF"/>
<stop offset="1" stop-color="#D7ECFF"/>
</linearGradient>
<linearGradient id="paint6_linear_94_232" x1="131.517" y1="-0.726712" x2="131.517" y2="32.1547" gradientUnits="userSpaceOnUse">
<stop stop-color="#E2F4FF"/>
<stop offset="1" stop-color="#D7ECFF"/>
</linearGradient>
<linearGradient id="paint7_linear_94_232" x1="113.739" y1="-0.726712" x2="113.739" y2="32.1547" gradientUnits="userSpaceOnUse">
<stop stop-color="#E2F4FF"/>
<stop offset="1" stop-color="#D7ECFF"/>
</linearGradient>
<linearGradient id="paint8_linear_94_232" x1="166.626" y1="-0.726712" x2="166.626" y2="32.1547" gradientUnits="userSpaceOnUse">
<stop stop-color="#E2F4FF"/>
<stop offset="1" stop-color="#D7ECFF"/>
</linearGradient>
<linearGradient id="paint9_linear_94_232" x1="155.507" y1="-0.726712" x2="155.507" y2="32.1547" gradientUnits="userSpaceOnUse">
<stop stop-color="#E2F4FF"/>
<stop offset="1" stop-color="#D7ECFF"/>
</linearGradient>
<linearGradient id="paint10_linear_94_232" x1="119.488" y1="-0.726702" x2="119.488" y2="32.1547" gradientUnits="userSpaceOnUse">
<stop stop-color="#E2F4FF"/>
<stop offset="1" stop-color="#D7ECFF"/>
</linearGradient>
<linearGradient id="paint11_linear_94_232" x1="134.607" y1="-0.726702" x2="134.607" y2="32.1547" gradientUnits="userSpaceOnUse">
<stop stop-color="#E2F4FF"/>
<stop offset="1" stop-color="#D7ECFF"/>
</linearGradient>
<linearGradient id="paint12_linear_94_232" x1="113.739" y1="-0.726702" x2="113.739" y2="32.1547" gradientUnits="userSpaceOnUse">
<stop stop-color="#E2F4FF"/>
<stop offset="1" stop-color="#D7ECFF"/>
</linearGradient>
<linearGradient id="paint13_linear_94_232" x1="165.377" y1="-0.726702" x2="165.377" y2="32.1547" gradientUnits="userSpaceOnUse">
<stop stop-color="#E2F4FF"/>
<stop offset="1" stop-color="#D7ECFF"/>
</linearGradient>
<linearGradient id="paint14_linear_94_232" x1="119.488" y1="-0.726701" x2="119.488" y2="32.1547" gradientUnits="userSpaceOnUse">
<stop stop-color="#E2F4FF"/>
<stop offset="1" stop-color="#D7ECFF"/>
</linearGradient>
<linearGradient id="paint15_linear_94_232" x1="152.096" y1="-0.726701" x2="152.096" y2="32.1547" gradientUnits="userSpaceOnUse">
<stop stop-color="#E2F4FF"/>
<stop offset="1" stop-color="#D7ECFF"/>
</linearGradient>
<linearGradient id="paint16_linear_94_232" x1="134.607" y1="-0.726701" x2="134.607" y2="32.1547" gradientUnits="userSpaceOnUse">
<stop stop-color="#E2F4FF"/>
<stop offset="1" stop-color="#D7ECFF"/>
</linearGradient>
<linearGradient id="paint17_linear_94_232" x1="113.739" y1="-0.726701" x2="113.739" y2="32.1547" gradientUnits="userSpaceOnUse">
<stop stop-color="#E2F4FF"/>
<stop offset="1" stop-color="#D7ECFF"/>
</linearGradient>
<linearGradient id="paint18_linear_94_232" x1="169.959" y1="-0.726701" x2="169.959" y2="32.1547" gradientUnits="userSpaceOnUse">
<stop stop-color="#E2F4FF"/>
<stop offset="1" stop-color="#D7ECFF"/>
</linearGradient>
<linearGradient id="paint19_linear_94_232" x1="123.599" y1="-0.726694" x2="123.599" y2="32.1547" gradientUnits="userSpaceOnUse">
<stop stop-color="#E2F4FF"/>
<stop offset="1" stop-color="#D7ECFF"/>
</linearGradient>
<linearGradient id="paint20_linear_94_232" x1="134.184" y1="-0.726694" x2="134.184" y2="32.1547" gradientUnits="userSpaceOnUse">
<stop stop-color="#E2F4FF"/>
<stop offset="1" stop-color="#D7ECFF"/>
</linearGradient>
<linearGradient id="paint21_linear_94_232" x1="113.739" y1="-0.726694" x2="113.739" y2="32.1547" gradientUnits="userSpaceOnUse">
<stop stop-color="#E2F4FF"/>
<stop offset="1" stop-color="#D7ECFF"/>
</linearGradient>
<linearGradient id="paint22_linear_94_232" x1="149.131" y1="-0.726694" x2="149.131" y2="32.1547" gradientUnits="userSpaceOnUse">
<stop stop-color="#E2F4FF"/>
<stop offset="1" stop-color="#D7ECFF"/>
</linearGradient>
<linearGradient id="paint23_linear_94_232" x1="171.325" y1="-0.726694" x2="171.325" y2="32.1547" gradientUnits="userSpaceOnUse">
<stop stop-color="#E2F4FF"/>
<stop offset="1" stop-color="#D7ECFF"/>
</linearGradient>
<linearGradient id="paint24_linear_94_232" x1="133.706" y1="-0.726744" x2="133.706" y2="32.1546" gradientUnits="userSpaceOnUse">
<stop stop-color="#E2F4FF"/>
<stop offset="1" stop-color="#D7ECFF"/>
</linearGradient>
<linearGradient id="paint25_linear_94_232" x1="113.739" y1="-0.726744" x2="113.739" y2="32.1546" gradientUnits="userSpaceOnUse">
<stop stop-color="#E2F4FF"/>
<stop offset="1" stop-color="#D7ECFF"/>
</linearGradient>
<linearGradient id="paint26_linear_94_232" x1="163.621" y1="-0.726744" x2="163.621" y2="32.1546" gradientUnits="userSpaceOnUse">
<stop stop-color="#E2F4FF"/>
<stop offset="1" stop-color="#D7ECFF"/>
</linearGradient>
<linearGradient id="paint27_linear_94_232" x1="125.807" y1="-0.726733" x2="125.807" y2="32.1547" gradientUnits="userSpaceOnUse">
<stop stop-color="#E2F4FF"/>
<stop offset="1" stop-color="#D7ECFF"/>
</linearGradient>
<linearGradient id="paint28_linear_94_232" x1="113.739" y1="-0.726733" x2="113.739" y2="32.1547" gradientUnits="userSpaceOnUse">
<stop stop-color="#E2F4FF"/>
<stop offset="1" stop-color="#D7ECFF"/>
</linearGradient>
<linearGradient id="paint29_linear_94_232" x1="159.719" y1="-0.726733" x2="159.719" y2="32.1547" gradientUnits="userSpaceOnUse">
<stop stop-color="#E2F4FF"/>
<stop offset="1" stop-color="#D7ECFF"/>
</linearGradient>
<linearGradient id="paint30_linear_94_232" x1="180.137" y1="-0.726733" x2="180.137" y2="32.1547" gradientUnits="userSpaceOnUse">
<stop stop-color="#E2F4FF"/>
<stop offset="1" stop-color="#D7ECFF"/>
</linearGradient>
<linearGradient id="paint31_linear_94_232" x1="138.494" y1="-0.726733" x2="138.494" y2="32.1547" gradientUnits="userSpaceOnUse">
<stop stop-color="#E2F4FF"/>
<stop offset="1" stop-color="#D7ECFF"/>
</linearGradient>
<linearGradient id="paint32_linear_94_232" x1="121.665" y1="-0.726691" x2="121.665" y2="32.1547" gradientUnits="userSpaceOnUse">
<stop stop-color="#E2F4FF"/>
<stop offset="1" stop-color="#D7ECFF"/>
</linearGradient>
<linearGradient id="paint33_linear_94_232" x1="138.563" y1="-0.726691" x2="138.563" y2="32.1547" gradientUnits="userSpaceOnUse">
<stop stop-color="#E2F4FF"/>
<stop offset="1" stop-color="#D7ECFF"/>
</linearGradient>
<linearGradient id="paint34_linear_94_232" x1="113.739" y1="-0.726691" x2="113.739" y2="32.1547" gradientUnits="userSpaceOnUse">
<stop stop-color="#E2F4FF"/>
<stop offset="1" stop-color="#D7ECFF"/>
</linearGradient>
<linearGradient id="paint35_linear_94_232" x1="156.73" y1="-0.726691" x2="156.73" y2="32.1547" gradientUnits="userSpaceOnUse">
<stop stop-color="#E2F4FF"/>
<stop offset="1" stop-color="#D7ECFF"/>
</linearGradient>
<linearGradient id="paint36_linear_94_232" x1="176.363" y1="-0.726691" x2="176.363" y2="32.1547" gradientUnits="userSpaceOnUse">
<stop stop-color="#E2F4FF"/>
<stop offset="1" stop-color="#D7ECFF"/>
</linearGradient>
<linearGradient id="paint37_linear_94_232" x1="130.269" y1="-0.726691" x2="130.269" y2="32.1547" gradientUnits="userSpaceOnUse">
<stop stop-color="#E2F4FF"/>
<stop offset="1" stop-color="#D7ECFF"/>
</linearGradient>
<linearGradient id="paint38_linear_94_232" x1="102.338" y1="173.849" x2="102.338" y2="185.889" gradientUnits="userSpaceOnUse">
<stop stop-color="#E2F4FF"/>
<stop offset="1" stop-color="#D7ECFF"/>
</linearGradient>
<linearGradient id="paint39_linear_94_232" x1="170.228" y1="186.816" x2="170.228" y2="190.981" gradientUnits="userSpaceOnUse">
<stop stop-color="#E2F4FF"/>
<stop offset="1" stop-color="#D7ECFF"/>
</linearGradient>
<linearGradient id="paint40_linear_94_232" x1="22.4217" y1="186.816" x2="22.4217" y2="190.981" gradientUnits="userSpaceOnUse">
<stop stop-color="#E2F4FF"/>
<stop offset="1" stop-color="#D7ECFF"/>
</linearGradient>
<linearGradient id="paint41_linear_94_232" x1="102.763" y1="170.16" x2="102.763" y2="30.5136" gradientUnits="userSpaceOnUse">
<stop stop-color="#F1FAFF"/>
<stop offset="1" stop-color="white"/>
</linearGradient>
<linearGradient id="paint42_linear_94_232" x1="102.765" y1="160.85" x2="102.765" y2="29.6579" gradientUnits="userSpaceOnUse">
<stop stop-color="#9972FF"/>
<stop offset="1" stop-color="#7F85FF"/>
</linearGradient>
<linearGradient id="paint43_linear_94_232" x1="101.834" y1="35.2173" x2="103.827" y2="166.628" gradientUnits="userSpaceOnUse">
<stop stop-color="#9972FF"/>
<stop offset="1" stop-color="#7F85FF"/>
</linearGradient>
<linearGradient id="paint44_linear_94_232" x1="102.763" y1="175.111" x2="102.763" y2="170.104" gradientUnits="userSpaceOnUse">
<stop stop-color="#E2F4FF"/>
<stop offset="1" stop-color="#D7ECFF"/>
</linearGradient>
<linearGradient id="paint45_linear_94_232" x1="83.1577" y1="107.293" x2="83.1577" y2="134.909" gradientUnits="userSpaceOnUse">
<stop stop-color="#9972FF"/>
<stop offset="1" stop-color="#7F85FF"/>
</linearGradient>
<linearGradient id="paint46_linear_94_232" x1="122.368" y1="107.293" x2="122.368" y2="134.909" gradientUnits="userSpaceOnUse">
<stop stop-color="#294698"/>
<stop offset="1" stop-color="#0E4BA6"/>
</linearGradient>
<linearGradient id="paint47_linear_94_232" x1="122.368" y1="131.232" x2="122.368" y2="132.34" gradientUnits="userSpaceOnUse">
<stop stop-color="#9972FF"/>
<stop offset="1" stop-color="#7F85FF"/>
</linearGradient>
<linearGradient id="paint48_linear_94_232" x1="64.2535" y1="45.903" x2="64.2535" y2="82.3456" gradientUnits="userSpaceOnUse">
<stop stop-color="#43D4C3"/>
<stop offset="1" stop-color="#5A98FE"/>
</linearGradient>
<linearGradient id="paint49_linear_94_232" x1="97.6928" y1="42.4717" x2="30.956" y2="42.4717" gradientUnits="userSpaceOnUse">
<stop offset="0.0879397" stop-color="#374492"/>
<stop offset="1" stop-color="#014DAE"/>
</linearGradient>
<linearGradient id="paint50_linear_94_232" x1="47.6914" y1="50.0297" x2="47.6914" y2="76.8568" gradientUnits="userSpaceOnUse">
<stop stop-color="#43D4C3"/>
<stop offset="1" stop-color="#5A98FE"/>
</linearGradient>
<linearGradient id="paint51_linear_94_232" x1="36.6102" y1="50.0297" x2="36.6102" y2="76.8568" gradientUnits="userSpaceOnUse">
<stop stop-color="#43D4C3"/>
<stop offset="1" stop-color="#5A98FE"/>
</linearGradient>
<linearGradient id="paint52_linear_94_232" x1="81.2836" y1="50.0297" x2="81.2836" y2="76.8568" gradientUnits="userSpaceOnUse">
<stop stop-color="#43D4C3"/>
<stop offset="1" stop-color="#5A98FE"/>
</linearGradient>
<linearGradient id="paint53_linear_94_232" x1="70.6877" y1="50.0297" x2="70.6877" y2="76.8568" gradientUnits="userSpaceOnUse">
<stop stop-color="#43D4C3"/>
<stop offset="1" stop-color="#5A98FE"/>
</linearGradient>
<linearGradient id="paint54_linear_94_232" x1="51.115" y1="50.0298" x2="51.115" y2="76.8568" gradientUnits="userSpaceOnUse">
<stop stop-color="#43D4C3"/>
<stop offset="1" stop-color="#5A98FE"/>
</linearGradient>
<linearGradient id="paint55_linear_94_232" x1="36.6102" y1="50.0298" x2="36.6102" y2="76.8568" gradientUnits="userSpaceOnUse">
<stop stop-color="#43D4C3"/>
<stop offset="1" stop-color="#5A98FE"/>
</linearGradient>
<linearGradient id="paint56_linear_94_232" x1="79.7595" y1="50.0298" x2="79.7595" y2="76.8568" gradientUnits="userSpaceOnUse">
<stop stop-color="#43D4C3"/>
<stop offset="1" stop-color="#5A98FE"/>
</linearGradient>
<linearGradient id="paint57_linear_94_232" x1="41.3009" y1="50.0297" x2="41.3009" y2="76.8569" gradientUnits="userSpaceOnUse">
<stop stop-color="#43D4C3"/>
<stop offset="1" stop-color="#5A98FE"/>
</linearGradient>
<linearGradient id="paint58_linear_94_232" x1="53.6359" y1="50.0297" x2="53.6359" y2="76.8569" gradientUnits="userSpaceOnUse">
<stop stop-color="#9972FF"/>
<stop offset="1" stop-color="#7F85FF"/>
</linearGradient>
<linearGradient id="paint59_linear_94_232" x1="36.6102" y1="50.0297" x2="36.6102" y2="76.8569" gradientUnits="userSpaceOnUse">
<stop stop-color="#43D4C3"/>
<stop offset="1" stop-color="#5A98FE"/>
</linearGradient>
<linearGradient id="paint60_linear_94_232" x1="78.7404" y1="50.0297" x2="78.7404" y2="76.8569" gradientUnits="userSpaceOnUse">
<stop stop-color="#43D4C3"/>
<stop offset="1" stop-color="#5A98FE"/>
</linearGradient>
<linearGradient id="paint61_linear_94_232" x1="41.3009" y1="50.0298" x2="41.3009" y2="76.8568" gradientUnits="userSpaceOnUse">
<stop stop-color="#43D4C3"/>
<stop offset="1" stop-color="#5A98FE"/>
</linearGradient>
<linearGradient id="paint62_linear_94_232" x1="67.9051" y1="50.0298" x2="67.9051" y2="76.8568" gradientUnits="userSpaceOnUse">
<stop stop-color="#43D4C3"/>
<stop offset="1" stop-color="#5A98FE"/>
</linearGradient>
<linearGradient id="paint63_linear_94_232" x1="53.6359" y1="50.0298" x2="53.6359" y2="76.8568" gradientUnits="userSpaceOnUse">
<stop stop-color="#9972FF"/>
<stop offset="1" stop-color="#7F85FF"/>
</linearGradient>
<linearGradient id="paint64_linear_94_232" x1="36.6102" y1="50.0298" x2="36.6102" y2="76.8568" gradientUnits="userSpaceOnUse">
<stop stop-color="#43D4C3"/>
<stop offset="1" stop-color="#5A98FE"/>
</linearGradient>
<linearGradient id="paint65_linear_94_232" x1="82.4786" y1="50.0298" x2="82.4786" y2="76.8568" gradientUnits="userSpaceOnUse">
<stop stop-color="#43D4C3"/>
<stop offset="1" stop-color="#5A98FE"/>
</linearGradient>
<linearGradient id="paint66_linear_94_232" x1="44.6546" y1="50.0297" x2="44.6546" y2="76.8569" gradientUnits="userSpaceOnUse">
<stop stop-color="#43D4C3"/>
<stop offset="1" stop-color="#5A98FE"/>
</linearGradient>
<linearGradient id="paint67_linear_94_232" x1="53.291" y1="50.0297" x2="53.291" y2="76.8569" gradientUnits="userSpaceOnUse">
<stop stop-color="#43D4C3"/>
<stop offset="1" stop-color="#5A98FE"/>
</linearGradient>
<linearGradient id="paint68_linear_94_232" x1="36.6102" y1="50.0297" x2="36.6102" y2="76.8569" gradientUnits="userSpaceOnUse">
<stop stop-color="#43D4C3"/>
<stop offset="1" stop-color="#5A98FE"/>
</linearGradient>
<linearGradient id="paint69_linear_94_232" x1="65.4861" y1="50.0297" x2="65.4861" y2="76.8569" gradientUnits="userSpaceOnUse">
<stop stop-color="#43D4C3"/>
<stop offset="1" stop-color="#5A98FE"/>
</linearGradient>
<linearGradient id="paint70_linear_94_232" x1="52.9013" y1="50.0297" x2="52.9013" y2="76.8569" gradientUnits="userSpaceOnUse">
<stop stop-color="#43D4C3"/>
<stop offset="1" stop-color="#5A98FE"/>
</linearGradient>
<linearGradient id="paint71_linear_94_232" x1="36.6102" y1="50.0297" x2="36.6102" y2="76.8569" gradientUnits="userSpaceOnUse">
<stop stop-color="#43D4C3"/>
<stop offset="1" stop-color="#5A98FE"/>
</linearGradient>
<linearGradient id="paint72_linear_94_232" x1="77.3075" y1="50.0297" x2="77.3075" y2="76.8569" gradientUnits="userSpaceOnUse">
<stop stop-color="#43D4C3"/>
<stop offset="1" stop-color="#5A98FE"/>
</linearGradient>
<linearGradient id="paint73_linear_94_232" x1="36.6102" y1="50.0297" x2="36.6102" y2="76.8569" gradientUnits="userSpaceOnUse">
<stop stop-color="#43D4C3"/>
<stop offset="1" stop-color="#5A98FE"/>
</linearGradient>
<linearGradient id="paint74_linear_94_232" x1="74.1246" y1="50.0297" x2="74.1246" y2="76.8569" gradientUnits="userSpaceOnUse">
<stop stop-color="#43D4C3"/>
<stop offset="1" stop-color="#5A98FE"/>
</linearGradient>
<linearGradient id="paint75_linear_94_232" x1="90.7832" y1="50.0297" x2="90.7832" y2="76.8569" gradientUnits="userSpaceOnUse">
<stop stop-color="#43D4C3"/>
<stop offset="1" stop-color="#5A98FE"/>
</linearGradient>
<linearGradient id="paint76_linear_94_232" x1="56.8073" y1="50.0297" x2="56.8073" y2="76.8569" gradientUnits="userSpaceOnUse">
<stop stop-color="#43D4C3"/>
<stop offset="1" stop-color="#5A98FE"/>
</linearGradient>
<linearGradient id="paint77_linear_94_232" x1="43.0773" y1="50.0298" x2="43.0773" y2="76.8568" gradientUnits="userSpaceOnUse">
<stop stop-color="#43D4C3"/>
<stop offset="1" stop-color="#5A98FE"/>
</linearGradient>
<linearGradient id="paint78_linear_94_232" x1="56.8638" y1="50.0298" x2="56.8638" y2="76.8568" gradientUnits="userSpaceOnUse">
<stop stop-color="#43D4C3"/>
<stop offset="1" stop-color="#5A98FE"/>
</linearGradient>
<linearGradient id="paint79_linear_94_232" x1="36.6102" y1="50.0298" x2="36.6102" y2="76.8568" gradientUnits="userSpaceOnUse">
<stop stop-color="#43D4C3"/>
<stop offset="1" stop-color="#5A98FE"/>
</linearGradient>
<linearGradient id="paint80_linear_94_232" x1="71.6858" y1="50.0298" x2="71.6858" y2="76.8568" gradientUnits="userSpaceOnUse">
<stop stop-color="#43D4C3"/>
<stop offset="1" stop-color="#5A98FE"/>
</linearGradient>
<linearGradient id="paint81_linear_94_232" x1="87.704" y1="50.0298" x2="87.704" y2="76.8568" gradientUnits="userSpaceOnUse">
<stop stop-color="#9972FF"/>
<stop offset="1" stop-color="#7F85FF"/>
</linearGradient>
<linearGradient id="paint82_linear_94_232" x1="50.0971" y1="50.0298" x2="50.0971" y2="76.8568" gradientUnits="userSpaceOnUse">
<stop stop-color="#43D4C3"/>
<stop offset="1" stop-color="#5A98FE"/>
</linearGradient>
<linearGradient id="paint83_linear_94_232" x1="164.061" y1="44.5728" x2="105.973" y2="44.5728" gradientUnits="userSpaceOnUse">
<stop offset="0.0879397" stop-color="#374492"/>
<stop offset="1" stop-color="#014DAE"/>
</linearGradient>
<linearGradient id="paint84_linear_94_232" x1="144.948" y1="68.4321" x2="125.089" y2="59.9077" gradientUnits="userSpaceOnUse">
<stop stop-color="#43D4C3"/>
<stop offset="1" stop-color="#5A98FE"/>
</linearGradient>
<linearGradient id="paint85_linear_94_232" x1="139.326" y1="74.1035" x2="130.724" y2="54.2159" gradientUnits="userSpaceOnUse">
<stop stop-color="#43D4C3"/>
<stop offset="1" stop-color="#5A98FE"/>
</linearGradient>
<linearGradient id="paint86_linear_94_232" x1="145.816" y1="64.1497" x2="124.218" y2="64.1497" gradientUnits="userSpaceOnUse">
<stop stop-color="#43D4C3"/>
<stop offset="1" stop-color="#5A98FE"/>
</linearGradient>
<linearGradient id="paint87_linear_94_232" x1="134.767" y1="62.5025" x2="134.767" y2="65.7967" gradientUnits="userSpaceOnUse">
<stop stop-color="#43D4C3"/>
<stop offset="1" stop-color="#5A98FE"/>
</linearGradient>
<linearGradient id="paint88_linear_94_232" x1="16.6403" y1="93.5124" x2="28.8374" y2="93.5124" gradientUnits="userSpaceOnUse">
<stop stop-color="#E2F4FF"/>
<stop offset="1" stop-color="#D7ECFF"/>
</linearGradient>
<linearGradient id="paint89_linear_94_232" x1="31.6857" y1="22.9452" x2="43.8827" y2="22.9452" gradientUnits="userSpaceOnUse">
<stop stop-color="#E2F4FF"/>
<stop offset="1" stop-color="#D7ECFF"/>
</linearGradient>
<linearGradient id="paint90_linear_94_232" x1="180.023" y1="63.499" x2="192.221" y2="63.499" gradientUnits="userSpaceOnUse">
<stop stop-color="#E2F4FF"/>
<stop offset="1" stop-color="#D7ECFF"/>
</linearGradient>
<linearGradient id="paint91_linear_94_232" x1="173.145" y1="112.837" x2="163.196" y2="112.837" gradientUnits="userSpaceOnUse">
<stop stop-color="#4DB9DD"/>
<stop offset="1" stop-color="#5A98FE"/>
</linearGradient>
<linearGradient id="paint92_linear_94_232" x1="169.9" y1="185.971" x2="159.7" y2="185.971" gradientUnits="userSpaceOnUse">
<stop stop-color="#294698"/>
<stop offset="1" stop-color="#0E4BA6"/>
</linearGradient>
<linearGradient id="paint93_linear_94_232" x1="181.314" y1="186.278" x2="176.119" y2="186.278" gradientUnits="userSpaceOnUse">
<stop stop-color="#294698"/>
<stop offset="1" stop-color="#0E4BA6"/>
</linearGradient>
<linearGradient id="paint94_linear_94_232" x1="163.258" y1="156.415" x2="180.87" y2="156.415" gradientUnits="userSpaceOnUse">
<stop stop-color="#294698"/>
<stop offset="1" stop-color="#0E4BA6"/>
</linearGradient>
<linearGradient id="paint95_linear_94_232" x1="173.149" y1="108.115" x2="173.149" y2="131.271" gradientUnits="userSpaceOnUse">
<stop stop-color="#43D4C3"/>
<stop offset="1" stop-color="#5A98FE"/>
</linearGradient>
<linearGradient id="paint96_linear_94_232" x1="163.865" y1="122.055" x2="146.209" y2="122.055" gradientUnits="userSpaceOnUse">
<stop stop-color="#294698"/>
<stop offset="1" stop-color="#0E4BA6"/>
</linearGradient>
<linearGradient id="paint97_linear_94_232" x1="177.156" y1="97.972" x2="168.531" y2="97.972" gradientUnits="userSpaceOnUse">
<stop stop-color="#294698"/>
<stop offset="1" stop-color="#0E4BA6"/>
</linearGradient>
<linearGradient id="paint98_linear_94_232" x1="181.691" y1="113.452" x2="174.626" y2="113.452" gradientUnits="userSpaceOnUse">
<stop stop-color="#4DB9DD"/>
<stop offset="1" stop-color="#5A98FE"/>
</linearGradient>
<linearGradient id="paint99_linear_94_232" x1="174.789" y1="102.929" x2="169.367" y2="102.929" gradientUnits="userSpaceOnUse">
<stop stop-color="#294698"/>
<stop offset="1" stop-color="#0E4BA6"/>
</linearGradient>
<linearGradient id="paint100_linear_94_232" x1="29.67" y1="186.225" x2="39.8342" y2="186.497" gradientUnits="userSpaceOnUse">
<stop stop-color="#294698"/>
<stop offset="1" stop-color="#0E4BA6"/>
</linearGradient>
<linearGradient id="paint101_linear_94_232" x1="5.91228" y1="181.621" x2="15.0949" y2="186.004" gradientUnits="userSpaceOnUse">
<stop stop-color="#294698"/>
<stop offset="1" stop-color="#0E4BA6"/>
</linearGradient>
<linearGradient id="paint102_linear_94_232" x1="7.74172" y1="158.236" x2="37.1514" y2="158.236" gradientUnits="userSpaceOnUse">
<stop stop-color="#294698"/>
<stop offset="1" stop-color="#0E4BA6"/>
</linearGradient>
<linearGradient id="paint103_linear_94_232" x1="28.5419" y1="116.832" x2="36.7843" y2="121.079" gradientUnits="userSpaceOnUse">
<stop stop-color="#4DB9DD"/>
<stop offset="1" stop-color="#5A98FE"/>
</linearGradient>
<linearGradient id="paint104_linear_94_232" x1="26.3523" y1="113.394" x2="26.3523" y2="136.794" gradientUnits="userSpaceOnUse">
<stop stop-color="#43D4C3"/>
<stop offset="1" stop-color="#5A98FE"/>
</linearGradient>
<linearGradient id="paint105_linear_94_232" x1="49.3258" y1="103.449" x2="53.3613" y2="130.768" gradientUnits="userSpaceOnUse">
<stop stop-color="#294698"/>
<stop offset="1" stop-color="#0E4BA6"/>
</linearGradient>
<linearGradient id="paint106_linear_94_232" x1="52.7982" y1="127.135" x2="52.96" y2="128.23" gradientUnits="userSpaceOnUse">
<stop stop-color="#9972FF"/>
<stop offset="1" stop-color="#7F85FF"/>
</linearGradient>
<linearGradient id="paint107_linear_94_232" x1="29.8104" y1="111.868" x2="28.6408" y2="111.868" gradientUnits="userSpaceOnUse">
<stop stop-color="#E2F4FF"/>
<stop offset="1" stop-color="#D7ECFF"/>
</linearGradient>
<linearGradient id="paint108_linear_94_232" x1="33.4838" y1="104.284" x2="24.8942" y2="104.284" gradientUnits="userSpaceOnUse">
<stop stop-color="#294698"/>
<stop offset="1" stop-color="#0E4BA6"/>
</linearGradient>
<linearGradient id="paint109_linear_94_232" x1="25.5242" y1="113.79" x2="22.1713" y2="117.81" gradientUnits="userSpaceOnUse">
<stop stop-color="#4DB9DD"/>
<stop offset="1" stop-color="#5A98FE"/>
</linearGradient>
<linearGradient id="paint110_linear_94_232" x1="68.0509" y1="94.4585" x2="137.475" y2="94.4585" gradientUnits="userSpaceOnUse">
<stop stop-color="#9972FF"/>
<stop offset="1" stop-color="#7F85FF"/>
</linearGradient>
<linearGradient id="paint111_linear_94_232" x1="66.7101" y1="153.93" x2="138.816" y2="153.93" gradientUnits="userSpaceOnUse">
<stop stop-color="#9972FF"/>
<stop offset="1" stop-color="#7F85FF"/>
</linearGradient>
<linearGradient id="paint112_linear_94_232" x1="76.413" y1="149.94" x2="76.413" y2="159.458" gradientUnits="userSpaceOnUse">
<stop stop-color="#9972FF"/>
<stop offset="1" stop-color="#7F85FF"/>
</linearGradient>
<linearGradient id="paint113_linear_94_232" x1="93.4872" y1="149.94" x2="93.4872" y2="159.458" gradientUnits="userSpaceOnUse">
<stop stop-color="#9972FF"/>
<stop offset="1" stop-color="#7F85FF"/>
</linearGradient>
<linearGradient id="paint114_linear_94_232" x1="110.561" y1="149.94" x2="110.561" y2="159.458" gradientUnits="userSpaceOnUse">
<stop stop-color="#9972FF"/>
<stop offset="1" stop-color="#7F85FF"/>
</linearGradient>
<linearGradient id="paint115_linear_94_232" x1="127.635" y1="149.94" x2="127.635" y2="159.458" gradientUnits="userSpaceOnUse">
<stop stop-color="#9972FF"/>
<stop offset="1" stop-color="#7F85FF"/>
</linearGradient>
<linearGradient id="paint116_linear_94_232" x1="102.12" y1="156.055" x2="102.12" y2="160.163" gradientUnits="userSpaceOnUse">
<stop stop-color="#9972FF"/>
<stop offset="1" stop-color="#7F85FF"/>
</linearGradient>
</defs>
</svg>
