<svg width="1129" height="1074" viewBox="0 0 1129 1074" fill="none" xmlns="http://www.w3.org/2000/svg">
<path d="M825.291 536.523C825.291 684.571 798.07 818.555 754.102 915.489C710.093 1012.51 649.499 1072.05 582.931 1072.05C516.364 1072.05 455.77 1012.51 411.761 915.489C367.793 818.555 340.572 684.571 340.572 536.523C340.572 388.475 367.793 254.492 411.761 157.557C455.77 60.5317 516.364 1 582.931 1C649.499 1 710.093 60.5317 754.102 157.557C798.07 254.492 825.291 388.475 825.291 536.523Z" stroke="url(#paint0_linear_94_222)" stroke-opacity="0.1" stroke-width="2"/>
<path d="M707.021 747.068C578.577 820.69 448.798 863.701 342.834 873.759C236.771 883.826 154.989 860.86 121.886 803.107C88.7834 745.353 110.3 663.179 172.593 576.748C234.828 490.398 337.534 400.153 465.978 326.531C594.423 252.909 724.202 209.898 830.166 199.84C936.229 189.773 1018.01 212.739 1051.11 270.493C1084.22 328.246 1062.7 410.42 1000.41 496.851C938.172 583.202 835.466 673.446 707.021 747.068Z" stroke="url(#paint1_linear_94_222)" stroke-opacity="0.1" stroke-width="2"/>
<path d="M465.979 747.068C594.423 820.69 724.202 863.701 830.166 873.759C936.229 883.826 1018.01 860.86 1051.11 803.107C1084.22 745.353 1062.7 663.179 1000.41 576.748C938.172 490.398 835.466 400.153 707.022 326.531C578.577 252.909 448.798 209.898 342.834 199.84C236.771 189.773 154.989 212.739 121.886 270.493C88.7836 328.246 110.3 410.42 172.593 496.851C234.828 583.202 337.534 673.446 465.979 747.068Z" stroke="url(#paint2_linear_94_222)" stroke-opacity="0.1" stroke-width="2"/>
<defs>
<linearGradient id="paint0_linear_94_222" x1="582.931" y1="0" x2="582.931" y2="1073.05" gradientUnits="userSpaceOnUse">
<stop stop-color="#0BBEE7"/>
<stop offset="1" stop-color="#C1C1C1" stop-opacity="0"/>
</linearGradient>
<linearGradient id="paint1_linear_94_222" x1="1051.98" y1="269.995" x2="121.019" y2="803.604" gradientUnits="userSpaceOnUse">
<stop stop-color="#0BBEE7"/>
<stop offset="1" stop-color="#C1C1C1" stop-opacity="0"/>
</linearGradient>
<linearGradient id="paint2_linear_94_222" x1="121.019" y1="269.995" x2="1051.98" y2="803.604" gradientUnits="userSpaceOnUse">
<stop stop-color="#0BBEE7"/>
<stop offset="1" stop-color="#C1C1C1" stop-opacity="0"/>
</linearGradient>
</defs>
</svg>
