<svg width="34" height="33" viewBox="0 0 34 33" fill="none" xmlns="http://www.w3.org/2000/svg">
<circle cx="17" cy="16.1194" r="16.1194" fill="#0BBEE7"/>
<path d="M24.3333 8H9.66667C9.26667 8 9 8.26667 9 8.66667V23.3333C9 23.7333 9.26667 24 9.66667 24H24.3333C24.7333 24 25 23.7333 25 23.3333V8.66667C25 8.26667 24.7333 8 24.3333 8ZM13.7333 21.6667H11.4V14H13.8V21.6667H13.7333ZM12.5333 12.9333C11.8 12.9333 11.1333 12.3333 11.1333 11.5333C11.1333 10.8 11.7333 10.1333 12.5333 10.1333C13.2667 10.1333 13.9333 10.7333 13.9333 11.5333C13.9333 12.3333 13.3333 12.9333 12.5333 12.9333ZM22.6667 21.6667H20.2667V17.9333C20.2667 17.0667 20.2667 15.9333 19.0667 15.9333C17.8 15.9333 17.6667 16.8667 17.6667 17.8667V21.6667H15.2667V14H17.5333V15.0667C17.8667 14.4667 18.6 13.8667 19.8 13.8667C22.2 13.8667 22.6667 15.4667 22.6667 17.5333V21.6667Z" fill="white"/>
</svg>
