<svg width="16" height="14" viewBox="0 0 16 14" fill="none" xmlns="http://www.w3.org/2000/svg">
<path d="M14 0.333252H2C1.46957 0.333252 0.960859 0.543966 0.585786 0.919038C0.210714 1.29411 0 1.80282 0 2.33325L0 11.6666C0 12.197 0.210714 12.7057 0.585786 13.0808C0.960859 13.4559 1.46957 13.6666 2 13.6666H14C14.5304 13.6666 15.0391 13.4559 15.4142 13.0808C15.7893 12.7057 16 12.197 16 11.6666V2.33325C16 1.80282 15.7893 1.29411 15.4142 0.919038C15.0391 0.543966 14.5304 0.333252 14 0.333252ZM13.8 3.53325L8.46667 8.19992C8.32145 8.27477 8.16284 8.32009 8 8.33325C7.83716 8.32009 7.67855 8.27477 7.53333 8.19992L2.2 3.53325C2.06739 3.41833 1.98587 3.25543 1.97337 3.08039C1.96086 2.90536 2.01841 2.73253 2.13333 2.59992C2.24826 2.46731 2.41116 2.38579 2.58619 2.37329C2.76123 2.36078 2.93406 2.41832 3.06667 2.53325L7.93333 6.79992L12.8 2.53325C12.8648 2.47461 12.9409 2.42968 13.0235 2.40119C13.1061 2.37269 13.1937 2.36121 13.2809 2.36744C13.3681 2.37367 13.4531 2.39748 13.5309 2.43743C13.6086 2.47738 13.6775 2.53265 13.7333 2.59992C13.8072 2.65101 13.8686 2.71803 13.9131 2.79603C13.9576 2.87403 13.9841 2.96103 13.9904 3.0506C13.9968 3.14018 13.9831 3.23004 13.9501 3.31358C13.9171 3.39711 13.8658 3.47218 13.8 3.53325Z" fill="#0BBEE7"/>
</svg>
