<svg width="24" height="24" viewBox="0 0 24 24" fill="none" xmlns="http://www.w3.org/2000/svg">
<path d="M15.3079 14.188L13.1669 16.3C12.0504 15.6268 11.0132 14.8301 10.0749 13.925C9.17114 12.9851 8.37459 11.9477 7.69989 10.832L9.80989 8.69099C9.93769 8.56122 10.024 8.39636 10.0578 8.2174C10.0917 8.03844 10.0715 7.85346 9.99989 7.68599L7.79989 2.55799C7.71298 2.35579 7.55632 2.19154 7.35845 2.09518C7.16058 1.99881 6.93467 1.97674 6.72189 2.03299L2.68789 3.09999C2.48644 3.15221 2.30868 3.27127 2.1837 3.43767C2.05871 3.60407 1.99391 3.80796 1.99989 4.01599C2.25657 8.70776 4.20734 13.1469 7.48989 16.509C10.8526 19.7926 15.2929 21.7438 19.9859 22C20.1941 22.007 20.3985 21.9427 20.5652 21.8178C20.732 21.6929 20.8511 21.5148 20.9029 21.313L21.9689 17.277C22.0254 17.0643 22.0036 16.8384 21.9074 16.6405C21.8112 16.4426 21.647 16.2859 21.4449 16.199L16.3159 14C16.1483 13.9273 15.9628 13.9064 15.7832 13.9399C15.6036 13.9734 15.4381 14.0598 15.3079 14.188V14.188Z" stroke="white" stroke-width="1.5" stroke-linecap="round" stroke-linejoin="round"/>
</svg>
