<svg width="14" height="14" viewBox="0 0 14 14" fill="none" xmlns="http://www.w3.org/2000/svg">
<path d="M9.53882 8.1275L8.11148 9.5335C7.36723 9.08435 6.67578 8.55302 6.05015 7.9495C5.44777 7.32354 4.91674 6.63264 4.46682 5.8895L5.87348 4.46216C5.9579 4.37586 6.0149 4.26652 6.03732 4.14789C6.05974 4.02927 6.04658 3.90666 5.99948 3.7955L4.53348 0.373498C4.47554 0.238698 4.3711 0.1292 4.23919 0.0649565C4.10727 0.00071304 3.95667 -0.014 3.81482 0.0234981L1.12548 0.733498C0.99084 0.768389 0.872075 0.848057 0.788717 0.959402C0.70536 1.07075 0.66237 1.20714 0.666817 1.34616C0.838094 4.47378 2.1386 7.43296 4.32682 9.67416C6.5688 11.8627 9.52902 13.163 12.6575 13.3335C12.7963 13.3379 12.9325 13.2948 13.0437 13.2115C13.1548 13.1281 13.2342 13.0094 13.2688 12.8748L13.9795 10.1842C14.0172 10.0424 14.0026 9.89179 13.9385 9.75986C13.8744 9.62792 13.7649 9.52345 13.6301 9.4655L10.2108 8.00016C10.0989 7.95199 9.97508 7.93837 9.85534 7.96106C9.7356 7.98375 9.62538 8.04171 9.53882 8.1275Z" fill="#0BBEE7"/>
</svg>
