<svg width="39" height="39" viewBox="0 0 39 39" fill="none" xmlns="http://www.w3.org/2000/svg">
<path d="M6.5 11.375C4.70437 11.375 3.25 9.92063 3.25 8.125C3.25 6.32937 4.70437 4.875 6.5 4.875C8.29562 4.875 9.75 6.32937 9.75 8.125C9.75 9.92063 8.29562 11.375 6.5 11.375Z" stroke="#0BBEE7" stroke-width="2" stroke-linecap="round" stroke-linejoin="round"/>
<path d="M9.75 34.125H4.875V27.625H1.625V19.5C1.625 17.7044 3.07937 16.25 4.875 16.25H6.5" stroke="#0BBEE7" stroke-width="2" stroke-linecap="round" stroke-linejoin="round"/>
<path d="M32.5 11.375C34.2956 11.375 35.75 9.92063 35.75 8.125C35.75 6.32937 34.2956 4.875 32.5 4.875C30.7044 4.875 29.25 6.32937 29.25 8.125C29.25 9.92063 30.7044 11.375 32.5 11.375Z" stroke="#0BBEE7" stroke-width="2" stroke-linecap="round" stroke-linejoin="round"/>
<path d="M29.25 34.125H34.125V27.625H37.375V19.5C37.375 17.7044 35.9206 16.25 34.125 16.25H32.5" stroke="#0BBEE7" stroke-width="2" stroke-linecap="round" stroke-linejoin="round"/>
<path d="M19.5 11.375C16.8074 11.375 14.625 9.19262 14.625 6.5C14.625 3.80737 16.8074 1.625 19.5 1.625C22.1926 1.625 24.375 3.80737 24.375 6.5C24.375 9.19262 22.1926 11.375 19.5 11.375Z" stroke="#0BBEE7" stroke-width="2" stroke-linecap="round" stroke-linejoin="round"/>
<path d="M24.375 37.375H14.625V27.625H11.375V19.5C11.375 17.7044 12.8294 16.25 14.625 16.25H24.375C26.1706 16.25 27.625 17.7044 27.625 19.5V29.25H24.375V37.375Z" stroke="#0BBEE7" stroke-width="2" stroke-linecap="round" stroke-linejoin="round"/>
</svg>
