<svg width="33" height="33" viewBox="0 0 33 33" fill="none" xmlns="http://www.w3.org/2000/svg">
<circle cx="16.8806" cy="16.1194" r="16.1194" fill="#0BBEE7"/>
<g clip-path="url(#clip0_1055_2783)">
<path d="M26.391 12.2507C26.391 12.2507 26.2298 10.8806 25.585 10.3164C24.8597 9.51044 24.0537 9.51044 23.6507 9.51044C20.9104 9.34924 16.8806 9.34924 16.8806 9.34924C16.8806 9.34924 12.8507 9.34924 10.1104 9.51044C9.70743 9.59103 8.90146 9.59103 8.17609 10.3164C7.61191 10.8806 7.37012 12.2507 7.37012 12.2507C7.37012 12.2507 7.20892 13.7821 7.20892 15.394V16.8448C7.20892 18.3761 7.37012 19.988 7.37012 19.988C7.37012 19.988 7.53131 21.3582 8.17609 21.9224C8.90146 22.7283 9.86862 22.6477 10.2716 22.7283C11.803 22.8895 16.8806 22.8895 16.8806 22.8895C16.8806 22.8895 20.9104 22.8895 23.6507 22.6477C24.0537 22.5672 24.8597 22.5672 25.585 21.8418C26.1492 21.2776 26.391 19.9075 26.391 19.9075C26.391 19.9075 26.5522 18.3761 26.5522 16.7642V15.3134C26.5522 13.7821 26.391 12.2507 26.391 12.2507ZM14.8656 18.6179V13.2179L20.1044 15.9582L14.8656 18.6179Z" fill="white"/>
</g>
<defs>
<clipPath id="clip0_1055_2783">
<rect width="19.3433" height="19.3433" fill="white" transform="translate(7.20892 6.44775)"/>
</clipPath>
</defs>
</svg>
